<svg xmlns="http://www.w3.org/2000/svg" version="1.1" xmlns:xlink="http://www.w3.org/1999/xlink" xmlns:svgjs="http://svgjs.dev/svgjs" viewBox="0 0 1422 800"><defs><linearGradient x1="50%" y1="0%" x2="50%" y2="100%" id="ccchaos-grad"><stop stop-color="hsl(171, 0%, 100%)" stop-opacity="1" offset="0%"></stop><stop stop-color="hsl(237, 86%, 47%)" stop-opacity="1" offset="100%"></stop></linearGradient></defs><g stroke-width="2" stroke="url(#ccchaos-grad)" fill="none" stroke-linecap="round"><path d="M733.8 -111.4C743.23 -111.65 752.65 -111.96 762.06 -112.31 771.47 -112.89 780.86 -113.44 790.23 -113.89 799.6 -114.41 808.95 -114.72 818.26 -114.77 827.56 -114.71 836.82 -114.27 846.02 -113.42 855.2 -112.34 864.31 -110.78 873.32 -108.74 882.3 -106.42 891.17 -103.62 899.9 -100.37 908.57 -96.89 917.07 -93.02 925.4 -88.82 933.62 -84.51 941.64 -79.96 949.4 -75.23 957.04 -70.54 964.4 -65.77 971.46 -60.97 978.35 -56.34 984.91 -51.76 991.1 -47.24 997.1 -42.97 1002.72 -38.8 1007.93 -34.72 1015.23 -29.02 1027.44 -18.2 1032.37 -12.89 1036.68 -7.65 1043.44 3.57 1046.09 9.78 1048.63 16.44 1053.56 31.63 1056.32 40.21 1058.57 46.26 1061.06 52.65 1063.85 59.36 1067.18 66.27 1070.94 73.48 1075.17 80.96 1080.07 88.6 1085.52 96.48 1091.55 104.56 1098.3 112.76 1105.64 121.13 1113.56 129.63 1122.14 138.2 1131.23 146.86 1140.77 155.61 1150.78 164.37 1161.09 173.18 1171.59 182.03 1182.26 190.86 1192.89 199.71 1203.33 208.58 1213.56 217.4 1223.34 226.23 1232.51 235.06 1241.06 243.84 1248.74 252.62 1255.41 261.41 1261.13 270.16 1265.64 278.91 1268.85 287.68 1270.92 296.41 1271.62 305.16 1270.93 313.94 1269.12 322.7 1266.01 331.49 1261.66 340.33 1256.44 349.15 1250.24 358.02 1243.18 366.96 1235.73 375.88 1227.79 384.87 1219.57 393.93 1211.54 402.98 1203.64 412.11 1196.06 421.3 1189.27 430.5 1183.23 439.65 1178.08 448.76 1174.1 457.87 1171.16 466.93 1169.31 475.92 1168.74 484.91 1169.23 493.82 1170.71 502.64 1173.32 511.43 1176.73 520.12 1180.8 528.69 1185.65 537.21 1190.86 545.57 1196.27 553.77 1201.97 561.89 1207.54 569.81 1212.8 577.51 1217.88 585.11 1222.36 592.45 1226.11 599.51 1229.29 606.44 1231.52 613.07 1232.75 619.38 1233.15 625.54 1232.44 631.37 1230.62 636.86 1227.9 642.21 1224.08 647.23 1219.21 651.92 1213.5 656.51 1206.86 660.82 1199.36 664.86 1191.22 668.91 1182.38 672.75 1172.96 676.46 1163.14 680.29 1152.92 684.09 1142.41 687.92 1131.75 692.03 1120.97 696.3 1110.16 700.8 1099.42 705.76 1088.79 711.06 1078.32 716.77 1068.1 723.06 1058.13 729.84 1048.45 737.13 1039.12 745.04 1030.11 753.47 1021.44 762.38 1013.16 771.8 1005.2 781.6 997.56 791.69 990.3 802.03 983.32 812.44 976.59 822.77 970.2 832.95 964 842.76 957.96 852.03 952.19 860.7 946.52 868.53 940.91 875.38 935.5 881.26 930.09 885.96 924.66 889.39 916.66 892.26 900.3 890.54 891.81 886.61 886.12 883.35 880.24 879.69 874.17 875.88 868.1 872.43 861.81 869.35 855.31 866.88 848.79 865.48 842.04 865.09 835.07 865.87 828.07 868.1 820.85 871.61 813.42 876.38 805.95 882.46 798.27 889.54 790.39 897.39 782.48 905.89 774.37 914.58 766.07 923.11 757.75 931.31 749.25 938.66 740.58 944.84 731.89 949.74 723.04 952.96 714.04 954.32 705.03 953.95 695.99 951.66 686.91 947.6 677.84 942.13 668.76 935.33 659.67 927.49 650.59 919.12 641.51 910.39 632.45 901.65 623.41 893.38 614.4 885.72 605.42 878.92 596.47 873.33 587.56 868.94 578.71 865.8 569.9 864.13 561.15 863.67 552.49 864.3 543.87 866.11 535.34 868.67 526.91 871.74 518.53 875.33 510.27 878.93 502.13 882.3 494.06 885.45 486.12 887.9 478.32 889.48 470.59 890.26 463.01 889.88 455.59 888.27 448.25 885.61 441.06 881.67 434.05 876.52 427.1 870.37 420.33 863.15 413.72 855.02 407.17 846.2 400.79 836.73 394.57 826.78 388.39 816.57 382.37 806.18 376.5 795.76 370.64 785.48 364.92 775.41 359.33 765.65 353.73 756.32 348.25 747.44 342.87 739.03 337.45 731.21 332.13 723.89 326.9 717.06 321.61 710.82 316.39 705 311.27 699.57 306.07 694.62 300.95 689.94 295.93 685.47 290.83 681.33 285.84 677.27 280.95 673.22 276.02 669.35 271.23 665.38 266.58 661.28 261.92 657.21 257.43 652.91 253.15 648.36 248.89 643.76 244.85 638.85 241.05 633.63 237.33 628.3 233.86 622.64 230.67 616.65 227.56 610.54 224.74 604.1 222.21 597.37 219.75 590.51 217.58 583.37 215.67 575.96 213.82 568.45 212.21 560.71 210.83 552.75 209.45 544.72 208.26 536.5 207.23 528.12 206.16 519.69 205.2 511.11 204.36 502.41 203.4 493.69 202.53 484.86 201.73 475.94 200.79 467.01 199.91 457.99 199.1 448.92 198.17 439.83 197.32 430.69 196.58 421.49 195.76 412.3 195.09 403.15 194.62 394.07 194.12 384.98 193.87 375.95 193.88 366.97 193.94 357.99 194.3 349.05 194.98 340.15 195.76 331.24 196.88 322.36 198.34 313.51 199.92 304.64 201.84 295.79 204.08 286.96 206.42 278.1 209.07 269.24 212 260.39 215 251.51 218.24 242.62 221.7 233.74 225.18 224.83 228.84 215.91 232.67 207.01 236.46 198.08 240.39 189.17 244.43 180.3 248.41 171.42 252.49 162.58 256.66 153.82 260.76 145.09 264.95 136.46 269.24 127.94 273.46 119.51 277.79 111.23 282.22 103.14 286.62 95.18 291.15 87.44 295.82 79.95 300.49 72.63 305.32 65.6 310.32 58.88 315.35 52.37 320.58 46.17 325.99 40.32 331.46 34.68 337.14 29.36 343.02 24.38 348.98 19.57 355.15 15.06 361.52 10.84 367.97 6.7 374.62 2.79 381.46 -0.9 388.38 -4.63 395.47 -8.23 402.74 -11.74 410.05 -15.38 417.53 -19 425.15 -22.64 432.81 -26.49 440.59 -30.42 448.5 -34.42 456.41 -38.69 464.44 -43.05 472.56 -47.5 480.67 -52.19 488.87 -56.93 497.15 -61.69 505.41 -66.6 513.74 -71.44 522.14 -76.18 530.5 -80.91 538.94 -85.44 547.43 -89.7 555.88 -93.81 564.4 -97.56 572.98 -100.9 581.53 -103.98 590.14 -106.61 598.81 -108.75 607.45 -110.61 616.16 -112 624.94 -112.94 633.7 -113.65 642.53 -113.98 651.44 -113.97 660.33 -113.88 669.3 -113.57 678.37 -113.08 687.42 -112.7 696.56 -112.26 705.8 -111.81 715.03 -111.61 724.36 -111.47 733.79 -111.4" stroke-dasharray="5 2" transform="rotate(0, 711, 400)" opacity="0.82"></path><path d="M736.23 -92.37C745.37 -92.62 754.47 -92.94 763.53 -93.32 772.59 -93.94 781.6 -94.53 790.55 -95.04 799.5 -95.65 808.38 -96.06 817.19 -96.23 825.99 -96.31 834.7 -96.04 843.31 -95.38 851.9 -94.5 860.37 -93.16 868.71 -91.36 877 -89.27 885.14 -86.71 893.11 -83.7 901.02 -80.44 908.72 -76.77 916.22 -72.75 923.61 -68.58 930.77 -64.14 937.66 -59.48 944.43 -54.82 950.91 -50.04 957.08 -45.19 963.11 -40.47 968.81 -35.75 974.17 -31.08 979.37 -26.64 984.21 -22.28 988.69 -18.01 995 -12.03 1005.65 -0.82 1010.05 4.54 1014.06 9.69 1020.87 20.33 1023.89 26.02 1027.03 31.99 1033.77 45.43 1037.69 52.99 1040.79 58.31 1044.17 63.95 1047.89 69.91 1052.15 76.05 1056.84 82.51 1061.99 89.25 1067.75 96.16 1074.02 103.35 1080.81 110.77 1088.2 118.34 1096.1 126.12 1104.47 134.08 1113.36 142.14 1122.64 150.36 1132.23 158.7 1142.15 167.1 1152.23 175.6 1162.36 184.18 1172.53 192.79 1182.55 201.45 1192.28 210.15 1201.71 218.86 1210.61 227.59 1218.86 236.34 1226.46 245.08 1233.18 253.83 1238.92 262.58 1243.74 271.32 1247.41 280.06 1249.87 288.8 1251.29 297.53 1251.44 306.26 1250.34 315 1248.23 323.73 1244.96 332.46 1240.58 341.21 1235.45 349.95 1229.45 358.71 1222.69 367.49 1215.61 376.26 1208.11 385.06 1200.36 393.88 1192.81 402.69 1185.36 411.53 1178.21 420.39 1171.78 429.24 1166.01 438.01 1161.05 446.68 1157.13 455.35 1154.15 463.91 1152.15 472.36 1151.31 480.79 1151.43 489.1 1152.45 497.27 1154.53 505.41 1157.36 513.4 1160.83 521.21 1165.06 528.98 1169.67 536.57 1174.52 543.94 1179.72 551.25 1184.87 558.33 1189.82 565.17 1194.7 571.93 1199.11 578.43 1202.93 584.66 1207.61 593.73 1211.71 610.33 1210.81 617.89 1209.08 622.79 1206.33 627.45 1202.61 631.88 1198.1 636.33 1192.68 640.62 1186.41 644.77 1179.49 649.04 1171.85 653.25 1163.57 657.46 1154.83 661.9 1145.6 666.44 1135.99 671.14 1126.13 676.19 1116.04 681.49 1105.8 687.1 1095.51 693.18 1085.2 699.64 1074.94 706.51 1064.8 713.9 1054.8 721.72 1044.99 729.97 1035.41 738.7 1026.08 747.79 1016.99 757.21 1008.22 766.93 999.72 776.82 991.49 786.79 983.59 796.77 975.95 806.6 968.55 816.14 961.45 825.33 954.57 833.97 947.87 841.92 941.44 849.17 935.14 855.5 928.96 860.8 922.98 865.16 917.07 868.39 911.19 870.45 905.46 871.57 899.72 871.59 893.95 870.58 888.27 868.91 882.52 866.47 876.68 863.44 870.89 860.27 864.98 856.93 858.93 853.62 852.91 850.83 846.73 848.52 840.38 846.9 834.03 846.36 827.51 846.82 820.8 848.38 814.08 851.28 807.17 855.32 800.08 860.47 792.97 866.76 785.67 873.87 778.19 881.59 770.69 889.82 763.01 898.12 755.15 906.2 747.28 913.9 739.24 920.76 731.04 926.5 722.83 931.05 714.46 934.03 705.95 935.29 697.43 934.97 688.87 932.88 680.29 929.13 671.72 924.09 663.12 917.77 654.52 910.45 645.94 902.57 637.36 894.28 628.79 885.88 620.25 877.82 611.74 870.21 603.26 863.3 594.81 857.41 586.41 852.56 578.07 848.81 569.77 846.39 561.53 845.1 553.38 844.86 545.28 845.79 537.26 847.5 529.35 849.83 521.49 852.8 513.75 855.97 506.12 859.1 498.56 862.23 491.13 864.91 483.83 866.96 476.6 868.44 469.52 868.99 462.58 868.5 455.71 867.12 448.99 864.6 442.42 860.95 435.92 856.34 429.56 850.68 423.37 844.04 417.21 836.63 411.21 828.45 405.35 819.64 399.52 810.38 393.82 800.74 388.26 790.85 382.71 780.88 377.27 770.9 371.95 761.01 366.6 751.34 361.36 741.94 356.22 732.85 351.03 724.18 345.93 715.91 340.91 708.06 335.83 700.7 330.83 693.76 325.92 687.2 320.93 681.12 316.03 675.36 311.21 669.89 306.34 664.8 301.56 659.91 296.9 655.15 292.19 650.65 287.62 646.2 283.19 641.74 278.74 637.42 274.47 633.01 270.38 628.48 266.31 623.99 262.45 619.31 258.81 614.42 255.22 609.51 251.87 604.35 248.77 598.93 245.74 593.45 242.96 587.7 240.45 581.68 237.99 575.58 235.79 569.21 233.83 562.59 231.91 555.89 230.22 548.94 228.74 541.76 227.26 534.53 225.96 527.07 224.83 519.42 223.65 511.72 222.61 503.84 221.7 495.79 220.7 487.72 219.8 479.49 219 471.12 218.09 462.74 217.27 454.23 216.55 445.61 215.72 436.98 215.01 428.23 214.43 419.39 213.78 410.55 213.3 401.71 213 392.88 212.69 384.05 212.61 375.22 212.77 366.42 212.97 357.6 213.44 348.8 214.2 340.01 215.04 331.21 216.17 322.42 217.61 313.63 219.14 304.84 220.97 296.04 223.09 287.25 225.29 278.45 227.76 269.65 230.49 260.86 233.27 252.05 236.27 243.26 239.49 234.48 242.72 225.7 246.12 216.94 249.69 208.22 253.23 199.51 256.9 190.86 260.7 182.27 264.45 173.73 268.3 165.28 272.26 156.94 276.15 148.68 280.15 140.56 284.24 132.61 288.28 124.77 292.42 117.13 296.68 109.72 300.91 102.46 305.27 95.45 309.75 88.72 314.24 82.16 318.88 75.9 323.68 69.95 328.51 64.18 333.52 58.72 338.7 53.58 343.94 48.6 349.37 43.91 355 39.5 360.69 35.2 366.59 31.15 372.68 27.31 378.85 23.49 385.21 19.82 391.76 16.29 398.38 12.68 405.19 9.12 412.16 5.6 419.2 1.89 426.4 -1.83 433.75 -5.61 441.14 -9.64 448.67 -13.76 456.33 -17.96 464.02 -22.42 471.82 -26.97 479.73 -31.59 487.65 -36.41 495.66 -41.26 503.76 -46.08 511.85 -51.01 520.03 -55.83 528.27 -60.51 536.51 -65.14 544.81 -69.53 553.17 -73.61 561.51 -77.52 569.91 -81.04 578.37 -84.15 586.81 -86.98 595.31 -89.36 603.87 -91.26 612.4 -92.88 620.99 -94.05 629.64 -94.79 638.28 -95.32 646.98 -95.49 655.74 -95.35 664.48 -95.15 673.3 -94.75 682.17 -94.19 691.05 -93.75 699.99 -93.28 708.99 -92.8 718 -92.58 727.07 -92.43 736.22 -92.37" stroke-dasharray="0 3" transform="rotate(3.7407407407407405, 711, 400)" opacity="0.35"></path><path d="M736.11 -73.34C744.91 -73.59 753.64 -73.93 762.3 -74.32 770.96 -74.97 779.53 -75.59 788.02 -76.16 796.49 -76.83 804.87 -77.33 813.15 -77.61 821.4 -77.82 829.54 -77.7 837.54 -77.23 845.51 -76.55 853.34 -75.43 861 -73.87 868.61 -72.03 876.05 -69.73 883.29 -66.98 890.46 -63.96 897.41 -60.53 904.14 -56.73 910.77 -52.74 917.16 -48.46 923.28 -43.92 929.29 -39.34 935.02 -34.6 940.46 -29.74 945.78 -24.97 950.8 -20.18 955.5 -15.39 960.1 -10.78 964.38 -6.24 968.35 -1.78 974.01 4.5 983.82 16.27 988.07 21.82 992.12 27.06 999.61 37.49 1003.26 42.86 1007.22 48.35 1016.06 60.39 1021.2 67.08 1025.14 71.74 1029.38 76.7 1033.98 81.93 1039.09 87.33 1044.6 93.02 1050.54 98.99 1057.02 105.13 1063.94 111.54 1071.3 118.2 1079.17 125.03 1087.43 132.08 1096.06 139.35 1105.07 146.75 1114.35 154.34 1123.82 162.09 1133.49 169.94 1143.19 177.92 1152.83 186.02 1162.4 194.19 1171.72 202.45 1180.66 210.78 1189.25 219.16 1197.25 227.59 1204.57 236.06 1211.24 244.55 1217.05 253.07 1221.89 261.62 1225.87 270.16 1228.77 278.73 1230.55 287.29 1231.38 295.86 1231.06 304.43 1229.6 313 1227.26 321.56 1223.87 330.13 1219.5 338.68 1214.49 347.24 1208.7 355.79 1202.26 364.33 1195.55 372.86 1188.48 381.39 1181.19 389.91 1174.09 398.42 1167.1 406.92 1160.37 415.39 1154.28 423.86 1148.79 432.21 1144 440.41 1140.17 448.62 1137.17 456.68 1135.03 464.59 1133.96 472.48 1133.74 480.22 1134.36 487.78 1135.95 495.32 1138.23 502.67 1141.13 509.83 1144.75 516.96 1148.78 523.88 1153.07 530.59 1157.74 537.25 1162.44 543.68 1167.03 549.89 1171.64 556.04 1175.89 561.96 1179.69 567.65 1184.58 576.01 1189.99 591.59 1190.15 598.88 1188.38 606.07 1179.26 620.01 1172.03 626.95 1166.31 631.76 1159.85 636.64 1152.73 641.62 1145.12 646.89 1136.98 652.35 1128.37 658.02 1119.45 664.08 1110.2 670.42 1100.71 677.09 1091.07 684.18 1081.3 691.62 1071.47 699.42 1061.66 707.62 1051.88 716.16 1042.17 724.99 1032.61 734.13 1023.19 743.48 1013.94 752.97 1004.9 762.55 996.08 772.11 987.47 781.54 979.12 790.79 970.98 799.71 963.07 808.16 955.42 816.13 947.96 823.42 940.7 829.93 933.68 835.7 926.81 840.54 920.08 844.37 913.55 847.33 907.12 849.26 900.77 850.16 894.58 850.29 888.43 849.51 882.3 847.91 876.28 845.87 870.25 843.29 864.18 840.34 858.18 837.45 852.12 834.56 845.98 831.88 839.89 829.81 833.69 828.3 827.38 827.53 821.08 827.82 814.66 829.06 808.1 831.33 801.55 834.81 794.85 839.31 788 844.75 781.14 851.16 774.13 858.24 766.97 865.78 759.8 873.7 752.47 881.61 745 889.22 737.52 896.43 729.88 902.81 722.11 908.12 714.33 912.33 706.41 915.09 698.36 916.25 690.31 915.98 682.23 914.07 674.14 910.64 666.05 906 657.95 900.15 649.85 893.34 641.76 885.96 633.69 878.11 625.64 870.09 617.61 862.28 609.61 854.78 601.65 847.83 593.73 841.74 585.85 836.51 578.04 832.24 570.26 829.16 562.56 827.11 554.94 826.06 547.37 826.11 539.88 826.98 532.5 828.52 525.17 830.78 517.95 833.38 510.85 836.1 503.8 839.02 496.87 841.7 490.08 843.96 483.34 845.89 476.74 847.1 470.28 847.48 463.87 847.16 457.59 845.86 451.47 843.54 445.38 840.38 439.43 836.2 433.63 831.06 427.85 825.15 422.2 818.4 416.69 810.9 411.18 802.86 405.79 794.28 400.53 785.27 395.25 776.01 390.08 766.53 385.01 756.94 379.91 747.38 374.9 737.89 369.98 728.54 365 719.43 360.11 710.58 355.3 702.02 350.42 693.84 345.62 685.99 340.9 678.47 336.11 671.37 331.4 664.59 326.78 658.12 322.11 652.02 317.53 646.17 313.06 640.53 308.55 635.2 304.17 630 299.93 624.9 295.67 620.02 291.57 615.15 287.65 610.27 283.74 605.52 280.02 600.69 276.5 595.74 273.02 590.86 269.77 585.82 266.73 580.61 263.75 575.4 261.01 569.99 258.49 564.37 256.03 558.72 253.79 552.85 251.78 546.75 249.81 540.62 248.04 534.26 246.47 527.67 244.91 521.05 243.53 514.21 242.31 507.17 241.06 500.09 239.96 492.81 238.99 485.35 237.96 477.86 237.06 470.19 236.26 462.35 235.4 454.5 234.64 446.49 234 438.33 233.3 430.17 232.71 421.85 232.28 413.4 231.79 404.95 231.48 396.47 231.35 387.96 231.21 379.45 231.29 370.92 231.59 362.37 231.92 353.82 232.51 345.26 233.34 336.69 234.24 328.12 235.4 319.53 236.83 310.95 238.33 302.36 240.1 293.77 242.12 285.19 244.2 276.61 246.53 268.04 249.08 259.49 251.67 250.96 254.47 242.44 257.47 233.97 260.47 225.53 263.64 217.13 266.96 208.81 270.26 200.53 273.7 192.34 277.25 184.26 280.77 176.25 284.39 168.37 288.12 160.64 291.8 153.02 295.58 145.58 299.47 138.33 303.31 131.23 307.25 124.34 311.31 117.69 315.34 111.21 319.5 104.98 323.78 99.03 328.06 93.24 332.49 87.74 337.06 82.51 341.67 77.44 346.43 72.64 351.37 68.11 356.35 63.69 361.52 59.5 366.86 55.54 372.28 51.62 377.88 47.87 383.66 44.27 389.53 40.63 395.58 37.08 401.8 33.59 408.11 29.96 414.59 26.34 421.24 22.7 427.96 18.85 434.85 14.94 441.88 10.95 448.97 6.72 456.2 2.39 463.56 -2.01 470.97 -6.66 478.5 -11.37 486.13 -16.13 493.8 -21.04 501.56 -25.95 509.42 -30.79 517.29 -35.69 525.24 -40.44 533.27 -45 541.31 -49.48 549.41 -53.68 557.58 -57.55 565.75 -61.22 573.97 -64.48 582.25 -67.33 590.52 -69.89 598.85 -72.01 607.22 -73.66 615.59 -75.04 624.01 -75.99 632.47 -76.53 640.93 -76.89 649.44 -76.91 657.99 -76.65 666.53 -76.35 675.13 -75.87 683.77 -75.26 692.4 -74.78 701.08 -74.27 709.81 -73.78 718.53 -73.55 727.3 -73.4 736.1 -73.34" stroke-dasharray="9 3" transform="rotate(7.481481481481481, 711, 400)" opacity="0.48"></path><path d="M733.46 -54.31C741.87 -54.56 750.19 -54.9 758.41 -55.32 766.62 -55.97 774.73 -56.62 782.72 -57.23 790.7 -57.95 798.56 -58.53 806.28 -58.91 813.99 -59.24 821.55 -59.27 828.95 -58.97 836.32 -58.48 843.52 -57.59 850.55 -56.27 857.52 -54.68 864.3 -52.65 870.87 -50.17 877.39 -47.43 883.68 -44.26 889.73 -40.71 895.72 -36.95 901.46 -32.88 906.94 -28.52 912.34 -24.07 917.49 -19.42 922.36 -14.62 927.15 -9.85 931.68 -5.02 935.93 -0.16 942.09 6.9 953.08 20.49 957.99 26.91 962.72 32.9 971.51 44.2 975.74 49.6 980.16 54.77 989.54 65.26 994.71 70.73 998.54 74.42 1002.6 78.29 1006.91 82.36 1011.63 86.49 1016.66 90.86 1022.03 95.47 1027.87 100.2 1034.06 105.18 1040.64 110.42 1047.67 115.8 1055.07 121.44 1062.81 127.34 1070.96 133.37 1079.4 139.65 1088.09 146.15 1097.05 152.79 1106.16 159.63 1115.35 166.66 1124.62 173.81 1133.82 181.12 1142.86 188.58 1151.74 196.13 1160.29 203.8 1168.42 211.58 1176.13 219.43 1183.24 227.37 1189.64 235.37 1195.41 243.42 1200.33 251.52 1204.34 259.67 1207.54 267.84 1209.75 276.04 1210.91 284.26 1211.22 292.5 1210.49 300.75 1208.73 309 1206.21 317.26 1202.75 325.52 1198.43 333.76 1193.56 342.01 1188.01 350.24 1181.88 358.44 1175.55 366.66 1168.9 374.84 1162.06 382.99 1155.41 391.14 1148.85 399.25 1142.52 407.31 1136.77 415.37 1131.55 423.28 1126.96 431.04 1123.21 438.79 1120.2 446.38 1117.97 453.8 1116.69 461.21 1116.18 468.44 1116.42 475.5 1117.55 482.54 1119.34 489.39 1121.69 496.05 1124.74 502.7 1128.19 509.14 1131.92 515.39 1136.07 521.61 1140.29 527.64 1144.48 533.48 1148.76 539.3 1152.79 544.94 1156.47 550.39 1161.42 558.51 1167.74 574.08 1168.76 581.62 1168.12 589.25 1161.84 604.63 1156.23 612.57 1151.64 618.11 1146.34 623.79 1140.37 629.64 1133.9 635.79 1126.87 642.16 1119.33 648.77 1111.44 655.73 1103.15 662.96 1094.53 670.47 1085.7 678.32 1076.65 686.44 1067.45 694.83 1058.17 703.48 1048.82 712.33 1039.46 721.34 1030.14 730.47 1020.88 739.64 1011.7 748.77 1002.65 757.82 993.73 766.67 984.96 775.22 976.38 783.45 967.96 791.2 959.72 798.37 951.69 804.98 943.83 810.85 936.14 815.91 928.66 820.24 921.33 823.67 914.14 826.17 907.13 827.92 900.25 828.76 893.46 828.74 886.84 828.12 880.28 826.8 873.78 824.87 867.4 822.7 861.05 820.19 854.7 817.51 848.45 815.04 842.17 812.73 835.87 810.74 829.62 809.43 823.32 808.74 816.96 808.79 810.63 809.85 804.22 811.81 797.72 814.71 791.23 818.68 784.65 823.53 777.95 829.18 771.27 835.64 764.46 842.63 757.54 849.95 750.62 857.53 743.58 865.02 736.42 872.17 729.26 878.89 721.98 884.82 714.58 889.72 707.18 893.61 699.67 896.15 692.05 897.22 684.43 896.99 676.8 895.26 669.17 892.11 661.54 887.86 653.92 882.47 646.31 876.15 638.71 869.26 631.13 861.88 623.59 854.24 616.06 846.73 608.57 839.4 601.14 832.48 593.73 826.26 586.37 820.76 579.09 816.07 571.84 812.43 564.66 809.7 557.57 807.89 550.52 807.12 543.56 807.16 536.7 807.88 529.88 809.38 523.17 811.31 516.57 813.5 510.02 816.03 503.59 818.5 497.28 820.75 491.01 822.87 484.86 824.48 478.85 825.47 472.87 825.95 467.02 825.63 461.3 824.44 455.6 822.54 450.03 819.73 444.59 816.01 439.15 811.56 433.83 806.26 428.63 800.19 423.42 793.51 418.32 786.19 413.32 778.32 408.3 770.08 403.37 761.45 398.53 752.56 393.65 743.52 388.84 734.36 384.13 725.18 379.35 716.07 374.64 707.05 370.02 698.18 365.32 689.54 360.7 681.12 356.15 672.95 351.54 665.08 347.01 657.49 342.57 650.17 338.06 643.17 333.66 636.42 329.36 629.91 325.02 623.69 320.81 617.66 316.72 611.78 312.62 606.15 308.67 600.62 304.88 595.16 301.1 589.88 297.49 584.61 294.07 579.32 290.68 574.14 287.49 568.9 284.51 563.58 281.57 558.31 278.84 552.92 276.32 547.39 273.85 541.88 271.59 536.21 269.53 530.37 267.51 524.53 265.68 518.5 264.04 512.29 262.42 506.06 260.97 499.65 259.68 493.04 258.39 486.41 257.24 479.6 256.24 472.6 255.21 465.58 254.31 458.39 253.54 451.01 252.72 443.63 252.03 436.08 251.48 428.37 250.88 420.65 250.42 412.77 250.12 404.73 249.79 396.7 249.63 388.61 249.66 380.48 249.68 372.36 249.91 364.19 250.34 355.99 250.8 347.8 251.49 339.59 252.41 331.35 253.36 323.13 254.56 314.89 256 306.65 257.48 298.43 259.2 290.21 261.15 282 263.14 273.82 265.34 265.65 267.76 257.53 270.19 249.44 272.81 241.4 275.61 233.42 278.41 225.5 281.37 217.65 284.47 209.91 287.55 202.23 290.75 194.67 294.09 187.25 297.37 179.93 300.77 172.76 304.28 165.77 307.74 158.89 311.31 152.22 314.97 145.75 318.6 139.42 322.33 133.32 326.18 127.47 329.99 121.75 333.93 116.28 337.99 111.06 342.05 105.98 346.24 101.14 350.58 96.56 354.93 92.06 359.44 87.8 364.11 83.74 368.82 79.74 373.7 75.91 378.75 72.23 383.86 68.53 389.14 64.95 394.6 61.44 400.14 57.83 405.85 54.26 411.73 50.7 417.69 46.96 423.82 43.18 430.12 39.35 436.48 35.3 443.01 31.17 449.69 26.95 456.43 22.5 463.32 17.97 470.33 13.36 477.4 8.56 484.6 3.72 491.91 -1.12 499.26 -6.08 506.72 -10.98 514.27 -15.79 521.85 -20.59 529.52 -25.21 537.27 -29.61 545.04 -33.88 552.88 -37.85 560.78 -41.46 568.7 -44.86 576.67 -47.84 584.7 -50.4 592.74 -52.68 600.82 -54.53 608.95 -55.92 617.08 -57.07 625.26 -57.8 633.47 -58.16 641.68 -58.35 649.93 -58.24 658.21 -57.87 666.5 -57.49 674.81 -56.94 683.15 -56.29 691.49 -55.78 699.86 -55.25 708.24 -54.75 716.63 -54.51 725.03 -54.36 733.45 -54.31" stroke-dasharray="7 6" transform="rotate(11.222222222222221, 711, 400)" opacity="0.19"></path><path d="M728.54 -35.28C736.52 -35.53 744.4 -35.88 752.15 -36.29 759.9 -36.96 767.53 -37.63 775.02 -38.27 782.5 -39.03 789.84 -39.66 797.03 -40.13 804.2 -40.56 811.21 -40.73 818.05 -40.59 824.86 -40.29 831.49 -39.61 837.94 -38.53 844.34 -37.2 850.55 -35.44 856.55 -33.25 862.5 -30.79 868.24 -27.92 873.76 -24.66 879.22 -21.17 884.46 -17.34 889.46 -13.2 894.41 -8.94 899.14 -4.44 903.63 0.23 908.07 4.93 912.3 9.74 916.3 14.62 920.28 19.41 924.07 24.2 927.66 28.98 932.98 35.85 942.99 48.92 947.8 55.1 952.74 60.87 962.88 71.88 968.26 77.22 974.16 82.4 987.32 93.01 994.75 98.58 1000.16 102.34 1005.86 106.28 1011.88 110.4 1018.28 114.58 1025.01 118.98 1032.04 123.6 1039.44 128.31 1047.13 133.25 1055.07 138.42 1063.31 143.7 1071.75 149.22 1080.33 154.95 1089.07 160.81 1097.86 166.87 1106.63 173.13 1115.38 179.51 1123.98 186.06 1132.33 192.79 1140.47 199.61 1148.21 206.57 1155.48 213.67 1162.32 220.85 1168.54 228.14 1174.06 235.53 1178.96 242.98 1183.06 250.51 1186.29 258.1 1188.78 265.74 1190.35 273.43 1190.96 281.15 1190.83 288.91 1189.75 296.69 1187.76 304.49 1185.1 312.3 1181.62 320.13 1177.37 327.94 1172.67 335.77 1167.37 343.59 1161.57 351.38 1155.61 359.18 1149.37 366.96 1142.96 374.69 1136.75 382.43 1130.61 390.12 1124.67 397.76 1119.26 405.4 1114.31 412.89 1109.9 420.23 1106.26 427.57 1103.26 434.74 1100.95 441.76 1099.49 448.77 1098.73 455.62 1098.63 462.3 1099.35 468.97 1100.66 475.47 1102.51 481.81 1105.01 488.15 1107.91 494.32 1111.1 500.33 1114.71 506.35 1118.45 512.21 1122.2 517.94 1126.11 523.68 1129.85 529.3 1133.34 534.8 1136.72 540.35 1139.68 545.82 1142.16 551.21 1145.08 559.42 1147.04 575.94 1145.89 584.39 1144.35 590.23 1142.06 596.17 1139.06 602.24 1135.52 608.54 1131.3 615.01 1126.43 621.66 1121.08 628.58 1115.16 635.71 1108.71 643.06 1101.88 650.68 1094.62 658.51 1086.97 666.55 1079.06 674.82 1070.86 683.25 1062.43 691.82 1053.86 700.52 1045.14 709.27 1036.31 718.02 1027.46 726.74 1018.57 735.35 1009.68 743.75 1000.84 751.94 992.06 759.79 983.36 767.21 974.77 774.22 966.29 780.66 957.94 786.45 949.72 791.67 941.65 796.13 933.71 799.81 925.93 802.82 918.29 805.01 910.78 806.37 903.42 807.13 896.18 807.13 889.05 806.44 882.06 805.34 875.16 803.73 868.34 801.7 861.63 799.61 854.97 797.36 848.36 795.1 841.84 793.18 835.34 791.53 828.85 790.28 822.42 789.75 815.98 789.85 809.52 790.67 803.1 792.45 796.65 795.05 790.14 798.47 783.67 802.85 777.13 807.96 770.53 813.74 763.94 820.18 757.27 827.02 750.53 834.08 743.8 841.3 736.98 848.36 730.08 855.05 723.17 861.3 716.19 866.77 709.12 871.29 702.04 874.86 694.89 877.2 687.65 878.19 680.42 878 673.2 876.43 665.99 873.56 658.79 869.67 651.61 864.72 644.46 858.88 637.31 852.48 630.21 845.56 623.15 838.34 616.1 831.15 609.1 824.05 602.16 817.23 595.24 810.97 588.39 805.28 581.61 800.26 574.85 796.15 568.18 792.84 561.59 790.35 555.03 788.82 548.57 788.05 542.2 787.98 535.87 788.68 529.63 789.88 523.51 791.44 517.42 793.44 511.44 795.53 505.58 797.57 496.88 800.53 480.09 803.97 472 803.86 464.03 802.18 448.64 793.85 441.21 787.23 436.26 781.97 431.4 776.01 426.64 769.45 421.84 762.43 417.12 754.92 412.48 747.02 407.79 738.84 403.17 730.39 398.63 721.77 394.02 713.07 389.48 704.3 385.02 695.54 380.48 686.86 376.01 678.27 371.62 669.81 367.16 661.53 362.78 653.44 358.49 645.55 354.14 637.89 349.88 630.45 345.72 623.21 341.53 616.23 337.45 609.44 333.5 602.82 329.52 596.43 325.69 590.19 322.01 584.06 318.33 578.13 314.82 572.27 311.48 566.46 308.16 560.79 305.02 555.14 302.08 549.47 299.17 543.9 296.45 538.29 293.93 532.6 291.45 526.98 289.16 521.25 287.07 515.42 285.01 509.63 283.14 503.7 281.46 497.63 279.79 491.58 278.29 485.38 276.97 479.03 275.64 472.67 274.47 466.16 273.46 459.49 272.43 452.81 271.55 445.98 270.82 438.98 270.06 431.98 269.44 424.82 268.98 417.51 268.48 410.19 268.14 402.73 267.97 395.11 267.78 387.5 267.77 379.84 267.93 372.13 268.1 364.43 268.46 356.69 269.02 348.92 269.6 341.17 270.39 333.39 271.38 325.6 272.41 317.83 273.65 310.06 275.1 302.3 276.58 294.56 278.27 286.84 280.16 279.15 282.08 271.5 284.19 263.89 286.48 256.34 288.78 248.84 291.26 241.42 293.89 234.08 296.51 226.8 299.28 219.64 302.19 212.59 305.07 205.63 308.07 198.8 311.19 192.13 314.27 185.56 317.45 179.16 320.75 172.95 323.99 166.85 327.34 160.95 330.79 155.26 334.2 149.69 337.72 144.33 341.34 139.2 344.93 134.17 348.64 129.36 352.47 124.78 358.27 118.12 370.54 105.86 377.05 100.18 381.47 96.42 386.05 92.78 390.79 89.24 395.58 85.61 400.53 82.04 405.65 78.49 410.84 74.8 416.19 71.1 421.71 67.36 427.3 63.43 433.05 59.44 438.96 55.38 444.95 51.09 451.09 46.73 457.37 42.28 463.73 37.63 470.22 32.92 476.85 28.16 483.54 23.25 490.36 18.34 497.29 13.46 504.27 8.52 511.36 3.68 518.55 -1.01 525.77 -5.66 533.09 -10.09 540.49 -14.27 547.93 -18.29 555.43 -21.98 563.01 -25.31 570.6 -28.39 578.26 -31.08 585.97 -33.34 593.69 -35.33 601.47 -36.9 609.28 -38.04 617.1 -38.96 624.97 -39.49 632.86 -39.67 640.76 -39.71 648.69 -39.48 656.64 -39.02 664.6 -38.56 672.57 -37.97 680.55 -37.28 688.54 -36.75 696.54 -36.22 704.54 -35.71 712.54 -35.48 720.54 -35.33 728.53 -35.28" stroke-dasharray="8 0" transform="rotate(14.962962962962962, 711, 400)" opacity="0.38"></path><path d="M721.85 -16.25C729.38 -16.5 736.8 -16.84 744.08 -17.26 751.36 -17.93 758.51 -18.6 765.51 -19.26 772.51 -20.05 779.35 -20.74 786.04 -21.27 792.71 -21.8 799.22 -22.08 805.56 -22.09 811.87 -21.96 818.01 -21.49 823.96 -20.64 829.89 -19.56 835.62 -18.08 841.17 -16.18 846.68 -14.03 851.99 -11.47 857.1 -8.51 862.19 -5.32 867.07 -1.78 871.75 2.07 876.41 6.1 880.88 10.38 885.16 14.88 889.43 19.45 893.53 24.17 897.46 28.99 901.41 33.78 905.21 38.62 908.88 43.47 914.42 50.54 925.22 64.2 930.61 70.72 936.22 76.86 947.99 88.5 954.3 94.07 958.81 97.62 963.49 101.17 968.36 104.74 973.53 108.21 978.94 111.74 984.58 115.34 990.55 118.9 996.78 122.58 1003.27 126.38 1010.09 130.19 1017.16 134.16 1024.47 138.3 1032.06 142.49 1039.85 146.86 1047.81 151.43 1055.97 156.07 1064.23 160.91 1072.54 165.96 1080.92 171.09 1089.26 176.42 1097.49 181.94 1105.63 187.55 1113.54 193.35 1121.15 199.32 1128.49 205.38 1135.4 211.6 1141.82 217.96 1147.79 224.4 1153.15 230.98 1157.82 237.67 1161.91 244.42 1165.24 251.28 1167.75 258.22 1169.61 265.22 1170.61 272.29 1170.75 279.42 1170.23 286.58 1168.87 293.8 1166.7 301.04 1163.96 308.32 1160.49 315.62 1156.35 322.93 1151.83 330.25 1146.79 337.58 1141.31 344.91 1135.72 352.24 1129.89 359.56 1123.91 366.86 1118.11 374.16 1112.38 381.43 1106.82 388.66 1101.73 395.89 1097.05 403 1092.84 409.97 1089.31 416.94 1086.34 423.78 1083.97 430.49 1082.37 437.19 1081.38 443.76 1080.98 450.2 1081.33 456.64 1082.21 462.95 1083.59 469.13 1085.58 475.33 1087.94 481.4 1090.61 487.37 1093.7 493.37 1096.93 499.27 1100.24 505.08 1103.74 510.94 1107.14 516.73 1110.38 522.47 1113.58 528.29 1116.47 534.09 1118.97 539.87 1121.25 545.77 1123.03 551.69 1124.27 557.66 1125.14 563.76 1125.4 569.95 1125.03 576.24 1124.21 582.7 1122.74 589.28 1120.62 596.01 1118.01 602.94 1114.78 610.03 1110.94 617.28 1106.64 624.73 1101.79 632.35 1096.41 640.13 1090.65 648.07 1084.43 656.15 1077.79 664.34 1070.87 672.63 1063.61 680.98 1056.07 689.33 1048.33 697.67 1040.37 705.93 1032.25 714.06 1024.03 722.03 1015.7 729.75 1007.3 737.15 998.88 744.24 990.45 750.9 982.03 757.05 973.65 762.74 965.32 767.83 957.06 772.26 948.88 776.13 940.79 779.3 932.8 781.74 924.92 783.61 917.14 784.77 909.47 785.24 901.91 785.25 894.46 784.68 887.12 783.57 879.89 782.24 872.74 780.57 865.68 778.66 858.73 776.83 851.84 774.99 845.02 773.27 838.28 771.99 831.58 771.04 824.92 770.55 818.32 770.79 811.75 771.64 805.18 773.18 798.66 775.59 792.14 778.73 785.61 782.6 779.11 787.28 772.59 792.58 766.04 798.4 759.51 804.76 752.94 811.4 746.33 818.16 739.73 825 733.08 831.63 726.38 837.85 719.69 843.64 712.94 848.69 706.15 852.83 699.35 856.11 692.51 858.25 685.61 859.16 678.72 859 671.85 857.58 665.03 854.98 658.21 851.44 651.43 846.91 644.69 841.54 637.96 835.61 631.29 829.16 624.67 822.37 618.05 815.54 611.5 808.71 605.02 802.04 598.55 795.81 592.16 790.02 585.84 784.78 579.54 780.29 573.32 776.49 567.2 773.41 561.09 771.2 555.07 769.69 549.15 768.85 540.35 768.99 523.29 772.23 515.03 774.68 506.89 777.36 491.15 781.36 483.55 782.11 476.03 781.67 461.44 776.65 454.36 771.97 449.63 768.06 444.98 763.48 440.42 758.26 435.8 752.57 431.26 746.33 426.79 739.61 422.26 732.53 417.8 725.09 413.4 717.35 408.94 709.4 404.54 701.27 400.2 693 395.8 684.68 391.47 676.32 387.2 667.97 382.87 659.69 378.62 651.47 374.45 643.36 370.22 635.39 366.09 627.56 362.05 619.88 357.98 612.37 354.01 605.03 350.17 597.84 346.3 590.84 342.57 583.98 338.98 577.25 335.39 570.7 331.95 564.25 328.67 557.9 325.41 551.69 322.32 545.54 319.41 539.43 316.53 533.43 313.82 527.45 311.31 521.46 308.82 515.55 306.53 509.6 304.42 503.61 302.34 497.67 300.44 491.66 298.73 485.58 297.03 479.52 295.51 473.36 294.17 467.11 292.83 460.86 291.66 454.51 290.66 448.04 289.65 441.57 288.8 434.98 288.11 428.26 287.41 421.55 286.87 414.71 286.49 407.74 286.1 400.77 285.87 393.68 285.82 386.47 285.76 379.26 285.87 372.02 286.17 364.75 286.47 357.49 286.96 350.21 287.63 342.93 288.32 335.65 289.2 328.38 290.27 321.11 291.36 313.86 292.64 306.63 294.11 299.44 295.6 292.27 297.27 285.14 299.13 278.07 300.99 271.03 303.03 264.07 305.23 257.18 307.42 250.35 309.77 243.61 312.27 236.99 314.74 230.42 317.35 223.98 320.09 217.68 322.79 211.45 325.61 205.38 328.54 199.47 331.42 193.64 334.41 187.99 337.5 182.52 340.55 177.14 343.69 171.95 346.93 166.95 351.78 159.67 361.95 146.15 367.29 139.89 372.72 133.84 384.21 122.43 390.29 116.99 396.55 111.51 409.88 100.61 416.96 95.07 421.78 91.21 426.77 87.3 431.91 83.33 437.11 79.16 442.47 74.93 447.98 70.62 453.55 66.11 459.28 61.53 465.15 56.89 471.08 52.08 477.16 47.24 483.36 42.39 489.63 37.44 496.02 32.53 502.53 27.69 509.09 22.84 515.77 18.14 522.54 13.61 529.36 9.17 536.27 4.98 543.27 1.08 550.3 -2.64 557.42 -6.02 564.59 -9.02 571.81 -11.79 579.08 -14.16 586.4 -16.11 593.75 -17.81 601.15 -19.11 608.58 -20 616.04 -20.7 623.52 -21.04 631.03 -21.06 638.56 -20.97 646.11 -20.63 653.67 -20.09 661.25 -19.58 668.83 -18.95 676.41 -18.24 684 -17.7 691.59 -17.17 699.16 -16.67 706.74 -16.44 714.3 -16.29 721.84 -16.25" stroke-dasharray="6 3" transform="rotate(18.703703703703702, 711, 400)" opacity="0.54"></path><path d="M714.07 2.77C721.14 2.53 728.09 2.19 734.92 1.77 741.74 1.11 748.43 0.43 754.97 -0.23 761.51 -1.03 767.9 -1.75 774.14 -2.34 780.37 -2.94 786.44 -3.33 792.35 -3.47 801.11 -3.36 817.76 -1.15 825.65 1.05 833.34 4.02 847.87 12.23 854.71 17.4 859.23 21.13 863.59 25.15 867.81 29.41 872.05 33.78 876.16 38.33 880.17 43.03 884.21 47.74 888.17 52.54 892.05 57.4 896.01 62.18 899.92 66.97 903.81 71.75 907.81 76.38 911.82 80.97 915.86 85.5 920.07 89.85 924.33 94.13 928.69 98.35 933.25 102.38 937.93 106.35 942.75 110.26 947.82 114.01 953.06 117.73 958.48 121.43 964.17 124.99 970.07 128.57 976.17 132.18 982.55 135.7 989.14 139.28 995.94 142.94 1002.98 146.56 1010.22 150.28 1017.62 154.12 1025.21 157.95 1032.93 161.93 1040.74 166.06 1048.66 170.22 1056.59 174.54 1064.5 179.03 1072.4 183.56 1080.17 188.27 1087.78 193.16 1095.23 198.1 1102.4 203.22 1109.22 208.5 1115.75 213.85 1121.83 219.36 1127.4 225.01 1132.53 230.73 1137.06 236.59 1140.94 242.59 1144.28 248.63 1146.9 254.8 1148.77 261.07 1150.05 267.38 1150.56 273.79 1150.3 280.29 1149.46 286.81 1147.88 293.41 1145.57 300.07 1142.79 306.75 1139.37 313.48 1135.36 320.25 1131.04 327.04 1126.27 333.85 1121.13 340.69 1115.9 347.53 1110.46 354.39 1104.89 361.25 1099.51 368.11 1094.17 374.97 1088.97 381.82 1084.2 388.68 1079.78 395.44 1075.77 402.11 1072.36 408.78 1069.44 415.35 1067.04 421.83 1065.32 428.31 1064.13 434.7 1063.47 441.01 1063.48 447.32 1063.98 453.55 1064.92 459.71 1066.43 465.88 1068.3 471.99 1070.46 478.05 1073.03 484.14 1075.78 490.19 1078.62 496.21 1081.69 502.29 1084.73 508.35 1087.65 514.42 1090.62 520.57 1093.35 526.74 1095.78 532.96 1098.08 539.27 1099.98 545.65 1101.44 552.11 1102.62 558.69 1103.29 565.38 1103.43 572.16 1103.19 579.09 1102.39 586.14 1101.01 593.31 1099.23 600.62 1096.87 608.05 1093.94 615.6 1090.62 623.26 1086.76 631.03 1082.39 638.86 1077.66 646.77 1072.47 654.72 1066.85 662.67 1060.94 670.6 1054.66 678.48 1048.06 686.24 1041.23 693.89 1034.14 701.34 1026.83 708.55 1019.38 715.51 1011.75 722.14 1004 728.36 996.18 734.22 988.27 739.6 980.32 744.44 972.35 748.83 964.37 752.63 956.4 755.79 948.46 758.47 940.55 760.52 932.7 761.93 924.91 762.89 917.18 763.27 909.53 763.1 901.96 762.63 894.47 761.73 887.06 760.47 879.73 759.13 872.48 757.6 865.32 755.98 858.23 754.57 851.21 753.26 844.26 752.17 837.38 751.56 830.56 751.34 823.79 751.6 817.08 752.56 810.41 754.11 803.77 756.28 797.18 759.24 790.61 762.84 784.06 767.04 777.54 771.94 771.03 777.34 764.51 783.14 758.03 789.36 751.53 795.75 745.02 802.18 738.53 808.63 732.02 814.81 725.5 820.58 718.98 825.92 712.44 830.55 705.88 834.34 699.32 837.34 692.73 839.29 686.13 840.13 679.52 840 672.97 838.73 666.49 836.37 660 833.17 653.57 829.04 647.2 824.11 640.83 818.66 634.53 812.67 628.31 806.32 622.08 799.87 615.93 793.35 609.85 786.89 603.78 780.76 597.79 774.95 591.88 769.57 585.98 764.82 580.16 760.63 574.44 757.06 565.91 753.16 549.33 749.52 541.29 749.5 533.34 750.67 517.93 754.46 510.46 756.49 503.07 758.34 488.7 759.94 481.72 759.32 474.77 757.52 461.19 750.14 454.54 744.57 450.07 740.19 445.67 735.25 441.34 729.81 436.94 723.98 432.6 717.71 428.32 711.06 423.98 704.13 419.69 696.92 415.47 689.46 411.17 681.85 406.95 674.09 402.79 666.23 398.57 658.32 394.42 650.37 390.35 642.42 386.23 634.51 382.2 626.65 378.26 618.87 374.29 611.17 370.42 603.58 366.66 596.09 362.89 588.73 359.24 581.48 355.73 574.34 352.21 567.34 348.84 560.44 345.62 553.64 342.41 546.97 339.37 540.38 336.49 533.86 333.64 527.44 330.96 521.07 328.45 514.75 325.98 508.5 323.68 502.27 321.57 496.04 319.49 489.87 317.58 483.69 315.86 477.48 314.16 471.31 312.64 465.09 311.3 458.83 309.97 452.59 308.82 446.28 307.83 439.91 306.86 433.55 306.05 427.11 305.42 420.6 304.79 414.09 304.32 407.49 304.03 400.82 303.73 394.14 303.61 387.38 303.67 380.54 303.73 373.7 303.96 366.86 304.37 360.02 304.79 353.2 305.39 346.38 306.17 339.59 306.95 332.8 307.92 326.05 309.06 319.33 310.21 312.62 311.54 305.97 313.04 299.37 314.54 292.79 316.21 286.28 318.04 279.85 319.87 273.46 321.85 267.15 323.98 260.95 326.09 254.78 328.34 248.74 330.72 242.81 333.07 236.94 335.55 231.2 338.14 225.6 340.69 220.06 343.35 214.68 346.11 209.45 350.23 201.78 358.88 187.35 363.4 180.59 367.95 174.04 377.48 161.74 382.48 155.93 387.56 150.21 398.27 139.13 403.94 133.68 409.76 128.11 422.12 116.75 428.67 110.88 433.13 106.78 437.74 102.62 442.5 98.4 447.31 94 452.26 89.52 457.36 84.99 462.51 80.29 467.81 75.54 473.25 70.76 478.75 65.86 484.38 60.97 490.14 56.1 495.95 51.19 501.89 46.35 507.95 41.64 514.06 36.96 520.28 32.45 526.59 28.16 532.96 24 539.42 20.1 545.97 16.51 552.56 13.13 559.23 10.09 565.96 7.42 572.74 4.99 579.57 2.95 586.46 1.3 593.38 -0.1 600.34 -1.13 607.34 -1.8 614.37 -2.28 621.43 -2.45 628.51 -2.33 635.62 -2.12 642.74 -1.7 649.87 -1.1 657.01 -0.54 664.16 0.1 671.31 0.81 678.46 1.36 685.61 1.89 692.74 2.37 699.87 2.6 706.98 2.74 714.06 2.77" stroke-dasharray="6 8" transform="rotate(22.444444444444443, 711, 400)" opacity="0.83"></path><path d="M705.97 21.81C712.6 21.56 719.11 21.23 725.5 20.82 731.88 20.18 738.14 19.5 744.27 18.83 750.39 18.02 756.39 17.28 762.24 16.65 770.93 15.75 787.61 15.15 795.58 15.63 803.39 16.7 818.31 20.99 825.43 24.23 832.42 28.18 845.84 38.08 852.31 43.91 856.63 48.01 860.87 52.33 865.04 56.83 869.28 61.38 873.47 66.07 877.64 70.85 881.89 75.6 886.15 80.4 890.41 85.23 894.81 89.95 899.24 94.67 903.74 99.36 908.39 103.9 913.14 108.4 917.98 112.84 923.02 117.12 928.18 121.33 933.48 125.49 939 129.49 944.68 133.43 950.52 137.34 956.58 141.1 962.81 144.84 969.21 148.58 975.83 152.2 982.6 155.83 989.52 159.51 996.63 163.09 1003.85 166.74 1011.16 170.46 1018.6 174.13 1026.09 177.89 1033.59 181.77 1041.12 185.62 1048.6 189.6 1055.99 193.71 1063.3 197.82 1070.44 202.08 1077.34 206.48 1084.06 210.9 1090.45 215.48 1096.48 220.2 1102.19 224.96 1107.45 229.87 1112.2 234.92 1116.54 240 1120.29 245.23 1123.43 250.59 1127.07 258.75 1130.19 275.73 1129.63 284.5 1128.54 290.41 1126.78 296.42 1124.4 302.5 1121.61 308.6 1118.27 314.78 1114.42 321.02 1110.32 327.28 1105.83 333.59 1101.01 339.95 1096.14 346.32 1091.08 352.73 1085.92 359.18 1080.92 365.63 1075.97 372.11 1071.13 378.62 1066.67 385.14 1062.5 391.6 1058.69 398.02 1055.41 404.43 1052.55 410.8 1050.13 417.11 1048.32 423.44 1046.98 429.71 1046.09 435.95 1045.81 442.2 1045.95 448.42 1046.5 454.61 1047.57 460.82 1048.97 467.02 1050.65 473.2 1052.74 479.43 1055 485.66 1057.38 491.9 1060.01 498.19 1062.65 504.52 1065.23 510.88 1067.9 517.31 1070.41 523.8 1072.7 530.34 1074.93 536.97 1076.84 543.68 1078.41 550.46 1079.78 557.34 1080.73 564.31 1081.23 571.36 1081.45 578.51 1081.18 585.74 1080.41 593.05 1079.31 600.43 1077.69 607.88 1075.57 615.37 1073.1 622.9 1070.14 630.45 1066.7 637.98 1062.92 645.5 1058.71 652.95 1054.07 660.31 1049.15 667.56 1043.84 674.66 1038.2 681.55 1032.32 688.25 1026.15 694.68 1019.72 700.78 1013.12 706.59 1006.31 712.01 999.32 716.99 992.22 721.61 984.98 725.73 977.64 729.33 970.24 732.52 962.78 735.17 955.27 737.25 947.75 738.94 940.22 740.09 932.68 740.71 925.17 741.02 917.68 740.88 910.23 740.34 902.82 739.64 895.45 738.65 888.14 737.44 880.88 736.29 873.68 735.09 866.54 733.91 859.47 733.02 852.45 732.32 845.49 731.89 838.59 731.98 831.74 732.47 824.95 733.44 818.21 735.06 811.51 737.22 804.86 739.95 798.26 743.36 791.68 747.31 785.15 751.77 778.64 756.8 772.16 762.21 765.7 767.92 759.27 773.94 752.85 780.05 746.45 786.13 740.06 792.17 733.68 797.91 727.31 803.23 720.94 808.14 714.58 812.37 708.22 815.82 701.86 818.55 695.51 820.33 689.15 821.1 682.8 821 676.52 819.86 670.32 817.74 664.12 814.84 657.99 811.1 651.94 806.6 645.89 801.61 639.91 796.09 634.02 790.18 628.12 784.13 622.31 777.94 616.58 771.75 610.84 765.79 605.2 760.04 599.64 754.6 594.07 749.67 588.6 745.2 583.21 741.23 575.18 736.55 559.55 730.93 551.96 729.83 544.44 729.95 529.82 732.07 522.72 733.6 515.66 735.25 501.9 737.39 495.18 737.51 488.47 736.78 475.31 732.26 468.85 728.38 464.5 725.22 460.21 721.52 455.98 717.33 451.68 712.76 447.44 707.73 443.25 702.28 439 696.52 434.8 690.41 430.67 683.98 426.47 677.34 422.33 670.46 418.25 663.38 414.12 656.17 410.06 648.83 406.08 641.4 402.05 633.92 398.11 626.39 394.25 618.85 390.37 611.33 386.59 603.83 382.91 596.37 379.22 588.96 375.65 581.62 372.21 574.35 368.76 567.16 365.45 560.05 362.29 553.02 359.14 546.08 356.15 539.21 353.31 532.42 350.49 525.71 347.85 519.06 345.37 512.47 342.92 505.95 340.64 499.48 338.54 493.04 336.48 486.66 334.59 480.3 332.88 473.95 331.2 467.65 329.69 461.34 328.37 455.03 327.07 448.75 325.95 442.45 325 436.13 324.07 429.82 323.32 423.48 322.74 417.12 322.18 410.75 321.79 404.36 321.58 397.92 321.38 391.48 321.36 385.01 321.51 378.5 321.68 371.98 322.02 365.51 322.54 359.08 323.07 352.66 323.76 346.28 324.63 339.95 325.51 333.63 326.55 327.37 327.75 321.17 328.96 314.99 330.33 308.88 331.86 302.85 333.38 296.83 335.05 290.91 336.87 285.08 338.67 279.28 340.61 273.58 342.68 268 345.82 259.73 352.63 243.86 356.28 236.3 359.97 228.91 367.75 214.91 371.82 208.28 375.91 201.82 384.44 189.54 388.9 183.68 393.39 177.88 402.8 166.6 407.75 161.05 412.78 155.39 423.44 143.92 429.07 138.04 432.88 133.95 436.83 129.82 440.91 125.65 445.01 121.3 449.26 116.9 453.63 112.44 458.05 107.82 462.6 103.16 467.29 98.46 472.03 93.63 476.9 88.79 481.9 83.95 486.95 79.04 492.13 74.18 497.43 69.39 502.78 64.59 508.26 59.92 513.84 55.4 519.48 50.96 525.22 46.73 531.06 42.73 536.95 38.89 542.93 35.34 549 32.1 555.11 29.08 561.3 26.39 567.56 24.08 573.86 21.99 580.22 20.27 586.64 18.93 593.08 17.79 599.58 17.01 606.12 16.56 612.68 16.27 619.27 16.26 625.9 16.51 632.54 16.81 639.2 17.3 645.87 17.95 652.56 18.54 659.25 19.2 665.94 19.91 672.64 20.45 679.33 20.96 686 21.42 692.68 21.64 699.34 21.77 705.96 21.81" stroke-dasharray="7 2" transform="rotate(26.185185185185183, 711, 400)" opacity="0.15"></path><path d="M698.39 40.84C704.58 40.6 710.67 40.27 716.66 39.88 725.58 38.93 742.86 36.76 751.22 35.72 759.45 34.75 775.32 33.81 782.96 34.03 790.49 34.77 805.02 38.2 812.04 40.94 819 44.36 832.57 53.17 839.21 58.47 843.68 62.25 848.11 66.27 852.51 70.5 856.98 74.82 861.45 79.31 865.91 83.92 870.48 88.56 875.08 93.28 879.72 98.07 884.48 102.81 889.3 107.57 894.2 112.34 899.25 117 904.39 121.65 909.63 126.27 915.04 130.75 920.58 135.18 926.23 139.57 932.07 143.81 938.04 148.01 944.14 152.16 950.41 156.16 956.81 160.13 963.34 164.07 970.02 167.88 976.8 171.68 983.68 175.48 990.66 179.18 997.71 182.9 1004.78 186.65 1011.91 190.32 1019.02 194.04 1026.09 197.83 1033.12 201.57 1040.05 205.39 1046.83 209.3 1053.48 213.18 1059.92 217.17 1066.09 221.27 1072.04 225.36 1077.65 229.56 1082.88 233.89 1087.8 238.23 1092.26 242.69 1096.24 247.28 1101.34 254.25 1108.06 268.85 1109.58 276.46 1109.79 284.22 1106.55 300.32 1103.19 308.63 1100.44 314.22 1097.2 319.9 1093.53 325.67 1089.66 331.44 1085.45 337.3 1080.96 343.23 1076.44 349.17 1071.76 355.18 1066.98 361.26 1062.36 367.34 1057.77 373.49 1053.28 379.7 1049.12 385.91 1045.21 392.12 1041.6 398.31 1038.45 404.51 1035.67 410.7 1033.26 416.88 1031.39 423.06 1029.91 429.25 1028.83 435.43 1028.29 441.63 1028.13 447.83 1028.32 454.05 1028.99 460.29 1029.96 466.54 1031.19 472.82 1032.81 479.13 1034.61 485.48 1036.53 491.86 1038.72 498.28 1040.95 504.76 1043.16 511.28 1045.5 517.86 1047.74 524.49 1049.82 531.18 1051.9 537.93 1053.74 544.74 1055.31 551.61 1056.75 558.54 1057.86 565.51 1058.61 572.54 1059.14 579.61 1059.27 586.71 1058.98 593.83 1058.42 600.96 1057.41 608.08 1055.96 615.18 1054.22 622.25 1052.04 629.25 1049.42 636.16 1046.51 642.98 1043.18 649.66 1039.45 656.16 1035.46 662.5 1031.1 668.61 1026.39 674.45 1021.45 680.06 1016.2 685.34 1010.68 690.27 1004.97 694.89 999.02 699.12 992.86 702.9 986.56 706.35 980.09 709.34 973.48 711.85 966.77 714.02 959.96 715.71 953.05 716.94 946.1 717.88 939.08 718.38 932.03 718.49 924.95 718.41 917.86 718.01 910.77 717.33 903.68 716.62 896.61 715.76 889.55 714.81 882.53 714 875.53 713.25 868.57 712.6 861.64 712.31 854.76 712.26 847.92 712.51 841.12 713.28 834.37 714.44 827.67 716.06 821 718.27 814.37 720.96 807.8 724.14 801.25 727.9 794.75 732.12 788.29 736.73 781.85 741.8 775.45 747.16 769.09 752.72 762.74 758.5 756.43 764.3 750.15 770 743.88 775.62 737.63 780.93 731.41 785.81 725.2 790.29 719 794.15 712.83 797.28 706.66 799.75 700.51 801.37 694.38 802.07 688.25 801.99 682.21 800.98 676.26 799.08 670.3 796.48 664.43 793.1 658.65 789.02 652.86 784.46 647.16 779.4 641.55 773.94 635.93 768.3 630.4 762.48 624.96 756.6 619.5 750.85 614.14 745.23 608.86 739.82 603.58 734.81 598.38 730.15 593.27 725.9 585.63 720.58 570.76 713.21 563.53 711.09 556.34 710.17 542.34 710.44 535.52 711.27 528.71 712.45 515.4 714.45 508.88 714.91 502.35 714.85 489.5 712.43 483.17 709.93 476.81 706.49 464.25 696.8 458.05 690.63 453.87 686.07 449.75 681.13 445.68 675.84 441.56 670.31 437.49 664.48 433.49 658.39 429.44 652.12 425.46 645.64 421.55 639 417.6 632.24 413.74 625.36 409.96 618.39 406.16 611.37 402.46 604.29 398.86 597.19 395.25 590.07 391.76 582.96 388.38 575.86 385.01 568.79 381.78 561.75 378.67 554.76 375.59 547.81 372.65 540.91 369.86 534.06 367.1 527.27 364.5 520.53 362.06 513.85 359.66 507.21 357.42 500.63 355.35 494.09 353.33 487.6 351.47 481.15 349.79 474.74 348.15 468.36 346.68 462.01 345.39 455.69 344.14 449.39 343.06 443.11 342.16 436.84 341.29 430.59 340.6 424.34 340.09 418.11 339.6 411.88 339.29 405.65 339.16 399.43 339.05 393.2 339.12 386.98 339.36 380.76 339.63 374.54 340.06 368.39 340.67 362.32 341.29 356.25 342.07 350.26 343.02 344.35 343.97 338.44 345.08 332.61 346.34 326.88 348.31 318.33 352.95 301.73 355.59 293.7 358.34 285.8 364.38 270.59 367.66 263.3 370.97 256.14 378.01 242.46 381.72 235.93 385.43 229.52 393.17 217.21 397.2 211.29 401.24 205.4 409.66 193.88 414.04 188.19 418.48 182.4 427.78 170.72 432.67 164.77 437.66 158.59 448.2 145.82 453.76 139.22 457.53 134.65 461.43 130.05 465.44 125.41 469.48 120.65 473.65 115.87 477.95 111.09 482.27 106.22 486.73 101.37 491.3 96.57 495.91 91.75 500.65 87.01 505.5 82.38 510.39 77.79 515.4 73.36 520.52 69.11 525.67 64.98 530.94 61.08 536.3 57.43 541.7 53.96 547.19 50.78 552.77 47.92 558.39 45.27 564.08 42.96 569.85 41 575.65 39.25 581.52 37.85 587.45 36.79 593.41 35.92 599.42 35.37 605.47 35.12 611.54 34.99 617.66 35.12 623.8 35.47 629.97 35.85 636.15 36.4 642.36 37.07 648.58 37.67 654.8 38.34 661.04 39.03 667.27 39.55 673.51 40.04 679.74 40.49 685.97 40.69 692.18 40.81 698.38 40.84" stroke-dasharray="8 4" transform="rotate(29.925925925925924, 711, 400)" opacity="0.43"></path><path d="M692.07 59.87C700.72 59.48 717.59 58.03 725.81 57.07 733.93 55.9 749.73 53.83 757.4 53.11 767.58 52.39 777.43 52.67 786.96 54.07 796.56 56.17 805.91 59.61 815.06 64.33 824.37 69.84 833.59 76.51 842.78 84.18 852.27 92.3 861.88 101.11 871.66 110.4 881.91 119.67 892.46 129.12 903.36 138.62 914.81 147.73 926.68 156.75 938.94 165.62 951.7 173.97 964.76 182.19 978.02 190.31 991.5 197.98 1004.9 205.68 1018 213.46 1030.8 220.94 1042.88 228.64 1053.92 236.62 1064.04 244.45 1072.66 252.66 1079.52 261.27 1084.93 269.84 1088.28 278.86 1089.43 288.32 1089.03 297.78 1086.51 307.7 1081.97 318.03 1079.28 323.21 1076.18 328.48 1072.7 333.86 1069.07 339.23 1065.15 344.71 1060.98 350.28 1056.81 355.85 1052.49 361.52 1048.09 367.28 1043.83 373.04 1039.59 378.89 1035.43 384.84 1031.56 390.78 1027.91 396.75 1024.5 402.73 1021.5 408.72 1018.79 414.74 1016.42 420.77 1014.5 426.81 1012.92 432.88 1011.69 438.97 1010.93 445.08 1010.5 451.22 1010.37 457.39 1011.41 469.78 1013.41 482.34 1016.1 495.05 1019.83 507.88 1023.65 520.89 1027.23 534.06 1030.96 547.33 1033.87 560.71 1035.74 574.12 1037.03 587.48 1036.92 600.71 1035.32 613.63 1032.78 626.21 1028.68 638.2 1023.09 649.35 1016.55 659.75 1008.65 668.98 999.56 676.82 989.74 683.59 978.96 688.78 967.42 692.31 955.45 694.85 942.94 695.92 930.07 695.73 917.04 695.24 903.8 694.13 890.5 692.84 877.2 692.43 863.91 692.71 850.72 694.08 837.6 697.37 824.6 702.26 811.76 708.8 799.01 717.3 786.4 727.02 773.95 737.51 767.75 743.01 761.58 748.46 755.45 753.78 749.33 758.97 743.25 763.85 737.19 768.31 731.15 772.38 725.13 775.88 719.15 778.7 713.17 780.94 707.21 782.4 701.29 783.04 695.36 782.99 689.53 782.09 683.8 780.39 678.06 778.07 672.42 775.03 666.86 771.35 661.31 767.22 655.84 762.6 650.46 757.59 645.07 752.37 639.77 746.94 634.56 741.4 624.11 730.58 613.99 720.27 604.22 710.98 594.38 703.5 584.85 697.61 575.64 693.33 566.33 691.04 557.29 689.97 548.54 689.76 539.64 690.63 530.98 691.52 522.56 692.01 513.94 692.39 505.52 691.66 497.3 689.61 488.86 686.67 480.6 682.13 472.54 676.04 464.27 668.89 456.21 660.31 448.38 650.5 440.4 639.89 432.69 628.36 425.32 616.14 417.88 603.51 410.83 590.49 404.24 577.26 397.68 563.92 391.63 550.55 386.16 537.25 380.82 524.01 376.09 510.9 372.02 497.96 368.12 485.11 364.9 472.43 362.38 459.92 361.19 453.68 360.17 447.49 359.33 441.33 358.53 435.18 357.91 429.07 357.46 422.98 357.05 416.91 356.82 410.86 356.76 404.84 356.73 398.82 356.88 392.83 357.21 386.87 357.82 377.98 359.89 360.69 361.34 352.29 362.94 343.99 366.86 327.91 369.15 320.13 372.26 309.82 375.85 299.94 379.88 290.52 383.77 281.07 388.06 272.06 392.69 263.48 397.13 254.83 401.88 246.55 406.92 238.61 411.75 230.49 416.86 222.62 422.27 214.92 427.48 206.9 433.02 198.92 438.87 190.93 444.62 182.48 450.74 173.92 457.25 165.23 463.73 156.04 470.65 146.73 478 137.36 485.42 127.67 493.29 118.09 501.61 108.77 510.04 99.51 518.92 90.83 528.21 82.9 537.63 75.51 547.45 69.17 557.62 64.04 567.91 59.7 578.51 56.65 589.37 54.9 600.32 53.79 611.49 53.72 622.82 54.54 631.37 55.28 648.61 57.18 657.28 58.17 665.97 58.9 683.37 59.79 692.06 59.87" stroke-dasharray="1 11" transform="rotate(33.666666666666664, 711, 400)" opacity="0.28"></path><path d="M687.67 78.9C698.52 78.23 709.13 77.3 719.49 76.22 729.84 74.58 739.95 73.17 749.81 72.2 759.69 71.31 769.37 71.27 778.84 72.23 788.41 73.78 797.85 76.55 807.2 80.52 816.72 85.24 826.26 91.11 835.84 98 845.72 105.41 855.76 113.6 866.01 122.39 876.64 131.32 887.55 140.57 898.76 150 910.38 159.22 922.31 168.44 934.47 177.6 946.96 186.36 959.57 195.01 972.18 203.56 984.82 211.69 997.2 219.77 1009.1 227.86 1020.58 235.61 1031.23 243.48 1040.77 251.5 1049.39 259.31 1056.56 267.38 1062.06 275.75 1066.26 284 1068.6 292.61 1068.99 301.6 1068.06 310.54 1065.28 319.89 1060.77 329.65 1055.39 339.38 1048.73 349.53 1041.08 360.09 1033.44 370.65 1025.49 381.62 1017.58 393 1010.71 404.39 1004.64 415.94 999.59 427.63 996.14 439.35 993.83 451.22 992.65 463.24 993.01 475.3 994.23 487.51 996.11 499.85 998.99 512.23 1002.05 524.72 1005.01 537.25 1008.26 549.75 1010.93 562.2 1012.79 574.48 1014.31 586.58 1014.7 598.32 1013.85 609.55 1012.29 620.32 1009.38 630.33 1005.14 639.37 1000.1 647.67 993.8 654.78 986.35 660.57 978.23 665.48 969.12 669.02 959.2 671.22 948.81 672.78 937.79 673.28 926.29 672.93 914.55 672.66 902.49 672.16 890.23 671.8 877.89 672.49 865.45 674 853.01 676.61 840.57 680.99 828.18 686.75 815.87 693.89 803.62 702.6 791.46 712.21 779.44 722.26 767.47 732.63 755.61 742.34 743.89 750.73 732.19 757.69 720.62 762.26 709.17 764.01 697.73 763.34 686.66 759.75 675.96 753.6 665.24 745.81 654.87 736.43 644.85 726.12 634.77 715.86 625.01 705.8 615.57 696.43 606.05 688.49 596.82 681.83 587.88 676.53 578.82 673.02 570.01 670.69 561.45 669.3 552.73 669.11 544.23 669.23 535.93 669.3 527.44 669.62 519.14 669.25 511.02 667.97 502.7 666.18 494.55 663.12 486.59 658.75 478.46 653.55 470.53 647.04 462.84 639.32 455.02 630.84 447.48 621.35 440.28 611.02 433.03 600.2 426.17 588.79 419.75 576.96 413.39 564.89 407.53 552.6 402.22 540.2 397.06 527.74 392.49 515.28 388.56 502.89 384.82 490.53 381.74 478.27 379.35 466.16 377.16 454.09 375.66 442.15 374.86 430.39 374.23 418.64 374.29 407.04 375.06 395.61 375.94 384.19 377.46 373.18 379.58 362.61 381.73 352.02 384.42 341.85 387.61 332.09 390.75 322.31 394.33 312.92 398.31 303.94 402.16 294.88 406.35 286.19 410.86 277.83 415.17 269.34 419.77 261.11 424.62 253.11 429.26 244.88 434.16 236.78 439.31 228.75 444.27 220.37 449.51 211.98 455.03 203.53 460.42 194.67 466.14 185.71 472.2 176.66 478.2 167.24 484.58 157.8 491.34 148.42 498.12 138.89 505.31 129.6 512.9 120.72 520.56 112.06 528.63 104.06 537.09 96.91 545.63 90.34 554.56 84.83 563.82 80.5 573.17 76.9 582.84 74.5 592.77 73.26 602.77 72.55 613.01 72.75 623.43 73.72 633.9 74.65 644.52 75.92 655.25 77.33 665.99 78.09 676.81 78.64 687.66 78.9" stroke-dasharray="10 1" transform="rotate(37.407407407407405, 711, 400)" opacity="0.67"></path><path d="M685.61 97.93C695.81 97.29 705.86 96.42 715.75 95.4 725.64 93.82 735.39 92.43 745 91.4 754.64 90.37 764.18 90.08 773.63 90.65 783.17 91.7 792.68 93.85 802.19 97.09 811.87 101.02 821.62 106.06 831.48 112.09 841.58 118.7 851.87 126.14 862.34 134.26 873.11 142.64 884.12 151.47 895.33 160.61 906.83 169.7 918.5 178.91 930.28 188.17 942.2 197.15 954.1 206.1 965.82 214.97 977.43 223.51 988.63 231.99 999.23 240.43 1009.33 248.56 1018.53 256.72 1026.61 264.96 1033.82 272.96 1039.64 281.12 1043.91 289.47 1047.05 297.67 1048.52 306.14 1048.28 314.91 1046.93 323.58 1044 332.6 1039.58 341.97 1034.48 351.3 1028.29 361.01 1021.25 371.11 1014.27 381.19 1007 391.68 999.73 402.57 993.37 413.46 987.66 424.52 982.79 435.72 979.28 446.93 976.74 458.28 975.14 469.73 974.9 481.2 975.42 492.77 976.54 504.37 978.62 515.94 980.93 527.51 983.24 538.97 985.93 550.31 988.22 561.44 989.93 572.24 991.48 582.76 992.13 592.77 991.79 602.13 990.94 610.99 988.95 619.02 985.81 626.07 982.04 632.46 977.12 637.75 971.14 641.88 964.56 645.38 957.03 647.78 948.66 649.16 939.84 650.24 930.34 650.62 920.28 650.54 909.94 650.82 899.18 651.16 888.11 651.86 876.91 653.68 865.51 656.36 853.99 660.08 842.44 665.36 830.84 671.8 819.25 679.31 807.67 688.07 796.12 697.42 784.66 706.96 773.23 716.6 761.87 725.48 750.62 733.07 739.39 739.33 728.26 743.41 717.24 744.98 706.22 744.42 695.55 741.25 685.24 735.77 674.89 728.78 664.88 720.26 655.18 710.76 645.43 701.12 635.97 691.44 626.8 682.18 617.54 673.99 608.55 666.77 599.8 660.66 590.95 656.09 582.31 652.6 573.88 650.04 565.32 648.71 556.93 647.87 548.73 647.23 540.37 647.1 532.17 646.65 524.14 645.64 515.94 644.46 507.91 642.36 500.07 639.24 492.09 635.56 484.31 630.75 476.78 624.85 469.15 618.32 461.81 610.79 454.8 602.39 447.78 593.48 441.14 583.86 434.93 573.68 428.81 563.2 423.17 552.33 418.07 541.19 413.12 529.91 408.75 518.47 405 506.99 401.45 495.47 398.55 483.95 396.32 472.5 394.3 461.05 392.95 449.69 392.29 438.47 391.82 427.25 392.02 416.16 392.9 405.23 393.92 394.3 395.55 383.77 397.75 373.63 399.98 363.48 402.73 353.71 405.94 344.31 409.1 334.85 412.67 325.74 416.61 316.95 420.41 308.06 424.53 299.44 428.94 291.07 433.15 282.53 437.63 274.16 442.34 265.92 446.83 257.44 451.55 249.01 456.51 240.59 461.26 231.87 466.26 223.1 471.51 214.28 476.6 205.14 481.99 195.94 487.67 186.74 493.25 177.32 499.17 167.98 505.43 158.82 511.65 149.68 518.25 140.91 525.2 132.66 532.18 124.74 539.53 117.56 547.24 111.26 554.99 105.57 563.1 100.91 571.54 97.35 580.03 94.46 588.83 92.65 597.91 91.87 607.03 91.51 616.4 91.93 625.99 92.99 635.6 93.95 645.4 95.18 655.36 96.5 665.32 97.2 675.41 97.7 685.6 97.93" stroke-dasharray="4 1" transform="rotate(41.148148148148145, 711, 400)" opacity="0.80"></path><path d="M686.12 116.96C695.73 116.36 705.28 115.54 714.75 114.59 724.23 113.1 733.66 111.76 743.03 110.7 752.44 109.59 761.84 109.09 771.22 109.33 780.7 109.94 790.21 111.52 799.77 114.08 809.49 117.25 819.31 121.44 829.25 126.61 839.39 132.34 849.68 138.92 860.13 146.23 870.79 153.89 881.6 162.1 892.53 170.72 903.62 179.43 914.77 188.39 925.88 197.49 937.01 206.47 947.97 215.49 958.63 224.52 969.06 233.3 978.99 242.05 988.23 250.78 996.94 259.24 1004.73 267.71 1011.44 276.2 1017.32 284.47 1021.92 292.82 1025.12 301.29 1027.34 309.6 1028.09 318.09 1027.34 326.78 1025.7 335.38 1022.7 344.23 1018.44 353.36 1013.65 362.43 1007.94 371.82 1001.49 381.52 995.14 391.21 988.53 401.24 981.89 411.62 976.02 422 970.68 432.48 966 443.05 962.49 453.62 959.77 464.26 957.83 474.92 957.08 485.57 956.98 496.21 957.41 506.78 958.74 517.27 960.32 527.63 961.97 537.74 964.06 547.69 965.89 557.29 967.31 566.43 968.72 575.26 969.45 583.5 969.39 591.03 968.34 601.24 960.72 616.49 954.1 621.39 948.88 623.97 942.76 625.73 935.83 626.79 928.49 627.84 920.45 628.51 911.81 629.01 902.89 630.06 893.48 631.37 883.68 633.17 873.72 636.07 863.47 639.8 853.02 644.45 842.49 650.42 831.82 657.32 821.08 665.02 810.33 673.65 799.54 682.62 788.75 691.57 777.98 700.45 767.23 708.52 756.54 715.33 745.86 720.92 735.23 724.56 724.68 725.95 714.12 725.48 703.88 722.71 693.94 717.85 683.98 711.64 674.3 703.96 664.91 695.28 655.46 686.33 646.28 677.15 637.34 668.14 628.33 659.89 619.54 652.34 610.96 645.64 602.29 640.22 593.8 635.73 585.5 632.1 577.08 629.63 568.82 627.74 560.72 626.22 552.49 625.36 544.41 624.46 536.5 623.3 528.45 622.24 520.57 620.59 512.88 618.21 505.08 615.54 497.5 611.97 490.16 607.5 482.77 602.58 475.66 596.74 468.89 590.07 462.14 582.96 455.76 575.12 449.81 566.64 443.95 557.85 438.58 548.55 433.72 538.87 429.03 529 424.9 518.85 421.37 508.51 418.04 498.1 415.34 487.57 413.29 476.99 411.45 466.4 410.27 455.8 409.76 445.25 409.43 434.7 409.76 424.2 410.75 413.8 411.87 403.39 413.59 393.31 415.84 383.56 418.14 373.78 420.91 364.31 424.13 355.12 427.3 345.89 430.85 336.9 434.74 328.15 438.5 319.3 442.56 310.63 446.88 302.12 451.02 293.44 455.39 284.86 459.98 276.35 464.36 267.61 468.96 258.89 473.75 250.17 478.35 241.2 483.16 232.21 488.19 223.2 493.05 213.99 498.17 204.81 503.54 195.71 508.79 186.53 514.33 177.55 520.17 168.87 525.94 160.34 532.03 152.28 538.44 144.82 544.84 137.77 551.57 131.49 558.63 126.09 565.69 121.28 573.09 117.45 580.8 114.64 588.53 112.4 596.57 111.12 604.88 110.73 613.21 110.65 621.81 111.23 630.64 112.35 639.49 113.3 648.55 114.47 657.81 115.7 667.07 116.32 676.52 116.76 686.12 116.96" stroke-dasharray="9 7" transform="rotate(44.888888888888886, 711, 400)" opacity="0.27"></path><path d="M689.14 135.99C698.22 135.43 707.3 134.68 716.38 133.81 725.47 132.42 734.58 131.14 743.69 130.1 752.85 128.93 762.05 128.28 771.29 128.26 780.61 128.5 790.01 129.58 799.48 131.52 809.07 133.97 818.78 137.36 828.58 141.65 838.53 146.48 848.6 152.14 858.76 158.55 869.05 165.36 879.41 172.77 889.79 180.68 900.23 188.78 910.61 197.22 920.84 205.92 930.99 214.62 940.87 223.46 950.34 232.38 959.52 241.17 968.13 250 976.02 258.82 983.38 267.47 989.83 276.12 995.26 284.78 999.95 293.26 1003.47 301.79 1005.74 310.37 1007.18 318.81 1007.35 327.36 1006.23 336.03 1004.4 344.61 1001.41 353.37 997.35 362.3 992.91 371.19 987.67 380.3 981.82 389.64 976.08 398.96 970.08 408.53 964.04 418.34 958.66 428.15 953.68 437.98 949.22 447.8 945.75 457.62 942.91 467.4 940.71 477.1 939.52 486.77 938.89 496.32 938.72 505.67 939.36 514.94 940.25 523.94 941.25 532.6 942.73 541.09 944.05 549.13 945.08 556.65 946.55 567.21 946.29 584.45 944.15 590.91 940.67 596.13 928.97 602.82 920.85 604.78 914.84 606.16 908.14 607.4 900.84 608.69 893.28 610.64 885.19 612.95 876.67 615.79 867.98 619.66 858.93 624.26 849.6 629.64 840.18 636.09 830.54 643.24 820.75 650.94 810.92 659.3 800.98 667.78 790.98 676.07 780.98 684.17 770.93 691.44 760.87 697.51 750.82 702.47 740.77 705.69 730.74 706.92 720.7 706.54 710.92 704.13 701.38 699.86 691.83 694.37 682.52 687.52 673.43 679.66 664.31 671.45 655.4 662.86 646.7 654.24 637.94 646.13 629.36 638.46 620.97 631.39 612.49 625.34 604.17 620.05 596.02 615.49 587.76 611.98 579.66 609.06 571.7 606.58 563.64 604.84 555.72 603.23 547.97 601.6 540.12 600.27 532.43 598.62 524.94 596.51 517.39 594.34 510.05 591.52 502.96 588.01 495.86 584.23 489.04 579.7 482.56 574.43 476.12 568.84 470.05 562.55 464.4 555.62 458.87 548.43 453.79 540.68 449.22 532.46 444.83 524.07 440.97 515.29 437.69 506.22 434.62 497.05 432.14 487.65 430.28 478.09 428.65 468.5 427.63 458.8 427.26 449.03 427.08 439.25 427.52 429.43 428.6 419.61 429.81 409.78 431.58 400.16 433.86 390.77 436.19 381.37 438.98 372.17 442.17 363.16 445.33 354.11 448.85 345.21 452.68 336.47 456.4 327.64 460.39 318.91 464.64 310.26 468.71 301.49 473 292.76 477.49 284.06 481.79 275.2 486.28 266.34 490.95 257.5 495.42 248.5 500.09 239.52 504.95 230.59 509.64 221.57 514.54 212.67 519.67 203.94 524.66 195.27 529.91 186.9 535.4 178.92 540.81 171.18 546.5 163.98 552.47 157.44 558.39 151.32 564.61 145.98 571.12 141.51 577.61 137.56 584.41 134.51 591.5 132.39 598.58 130.73 605.95 129.89 613.6 129.83 621.25 129.97 629.17 130.66 637.34 131.78 645.51 132.7 653.92 133.77 662.57 134.89 671.2 135.44 680.06 135.82 689.14 135.99" stroke-dasharray="11 10" transform="rotate(48.629629629629626, 711, 400)" opacity="0.66"></path><path d="M694.36 155.02C702.95 154.5 711.58 153.82 720.26 153.03 728.96 151.76 737.72 150.57 746.52 149.56 755.37 148.4 764.28 147.65 773.26 147.43 782.31 147.38 791.45 148.03 800.66 149.43 809.95 151.23 819.34 153.87 828.8 157.33 838.34 161.26 847.95 165.99 857.59 171.44 867.28 177.3 876.96 183.8 886.57 190.83 896.15 198.13 905.59 205.85 914.78 213.89 923.83 222.05 932.52 230.43 940.75 238.98 948.66 247.5 955.96 256.13 962.54 264.8 968.63 273.39 973.85 282.01 978.12 290.65 981.76 299.17 984.35 307.73 985.84 316.31 986.66 324.79 986.37 333.32 984.99 341.91 983.06 350.44 980.15 359.06 976.34 367.78 972.26 376.46 967.51 385.27 962.22 394.2 957.06 403.12 951.67 412.19 946.19 421.38 941.28 430.58 936.66 439.69 932.45 448.68 929.06 457.67 926.16 466.51 923.76 475.17 922.23 483.8 921.15 492.19 920.46 500.31 920.49 508.33 920.75 516.01 921.14 523.28 922 530.39 922.78 537.04 923.38 543.14 924.38 551.7 924.11 565.44 922.44 570.59 919.8 574.94 910.57 581.27 904.01 583.77 899.13 585.72 893.61 587.71 887.51 589.88 881.18 592.73 874.33 595.99 867.02 599.75 859.55 604.41 851.68 609.68 843.48 615.56 835.18 622.28 826.61 629.47 817.82 636.99 808.98 644.95 799.96 652.85 790.8 660.44 781.64 667.76 772.36 674.25 763.01 679.61 753.67 683.99 744.25 686.81 734.8 687.88 725.35 687.59 716.08 685.51 707 681.79 697.9 676.99 688.99 670.93 680.26 663.89 671.5 656.44 662.9 648.52 654.47 640.41 646 632.6 637.67 625 629.5 617.8 621.26 611.36 613.17 605.49 605.21 600.21 597.18 595.82 589.28 591.96 581.52 588.56 573.7 585.88 566.01 583.45 558.48 581.15 550.89 579.26 543.48 577.25 536.26 575.02 529.01 572.9 521.98 570.37 515.21 567.35 508.45 564.24 501.98 560.55 495.84 556.27 489.77 551.8 484.06 546.72 478.76 541.06 473.59 535.2 468.86 528.8 464.62 521.92 460.55 514.88 457 507.41 453.99 499.58 451.19 491.65 448.96 483.41 447.31 474.91 445.88 466.37 445.04 457.62 444.81 448.7 444.76 439.76 445.3 430.68 446.45 421.49 447.72 412.29 449.53 403.19 451.81 394.21 454.15 385.22 456.92 376.33 460.07 367.55 463.2 358.73 466.66 349.99 470.42 341.32 474.08 332.6 478.01 323.91 482.17 315.27 486.17 306.55 490.39 297.84 494.79 289.16 499.01 280.38 503.41 271.63 507.97 262.93 512.35 254.16 516.91 245.47 521.64 236.91 526.2 228.36 530.94 220.01 535.88 211.93 540.68 203.99 545.7 196.42 550.93 189.32 556.06 182.51 561.43 176.28 567.05 170.72 572.59 165.57 578.4 161.17 584.47 157.58 590.5 154.44 596.8 152.11 603.38 150.59 609.92 149.43 616.74 148.96 623.83 149.15 630.9 149.44 638.24 150.18 645.84 151.27 653.42 152.12 661.27 153.1 669.36 154.09 677.44 154.56 685.78 154.88 694.36 155.02" stroke-dasharray="8 6" transform="rotate(52.37037037037037, 711, 400)" opacity="0.80"></path><path d="M701.26 174.05C709.37 173.57 717.56 172.96 725.81 172.26 734.08 171.11 742.43 170.03 750.85 169.09 759.3 167.97 767.83 167.18 776.42 166.82 785.06 166.55 793.78 166.86 802.55 167.8 811.38 169.05 820.26 171.02 829.16 173.71 838.1 176.8 847.05 180.61 855.96 185.11 864.86 189.99 873.68 195.5 882.35 201.56 890.94 207.91 899.31 214.73 907.38 221.94 915.26 229.32 922.73 237 929.71 244.9 936.38 252.88 942.43 261.02 947.8 269.27 952.71 277.52 956.84 285.84 960.09 294.21 962.82 302.53 964.64 310.89 965.49 319.27 965.82 327.59 965.2 335.94 963.67 344.31 961.71 352.64 958.94 361.01 955.42 369.41 951.71 377.79 947.43 386.21 942.7 394.67 938.1 403.12 933.27 411.62 928.34 420.15 923.89 428.67 919.64 437.02 915.68 445.16 912.4 453.29 909.49 461.19 906.97 468.83 905.18 476.43 903.73 483.73 902.61 490.7 902.11 497.59 901.81 504.1 901.64 510.18 902.05 518.91 902.73 533.78 902.56 539.85 900.25 549.59 891.01 560.89 885.67 564.25 881.7 566.9 877.17 569.7 872.1 572.73 866.84 576.41 861.08 580.48 854.87 584.98 848.52 590.23 841.76 595.94 834.64 602.09 827.42 608.86 819.9 615.91 812.1 623.11 804.26 630.55 796.18 637.81 787.91 644.66 779.62 651.21 771.17 656.94 762.58 661.63 753.99 665.46 745.28 667.92 736.47 668.85 727.66 668.63 718.96 666.85 710.39 663.64 701.82 659.48 693.36 654.17 685.04 647.94 676.7 641.27 668.48 634.07 660.39 626.57 652.27 619.2 644.27 611.87 636.38 604.73 628.46 598.14 620.65 591.93 612.97 586.15 605.24 581.09 597.63 576.47 590.16 572.26 582.64 568.71 575.27 565.45 568.05 562.38 560.8 559.78 553.73 557.21 546.86 554.56 539.99 552.16 533.35 549.53 526.95 546.6 520.61 543.72 514.54 540.44 508.8 536.71 503.15 532.93 497.85 528.65 492.94 523.89 488.17 519.02 483.83 513.67 479.95 507.86 476.24 501.94 473.01 495.59 470.31 488.85 467.8 482.03 465.82 474.86 464.39 467.37 463.17 459.84 462.5 452.03 462.4 443.96 462.47 435.89 463.1 427.58 464.3 419.07 465.62 410.55 467.43 402.04 469.69 393.55 472.01 385.06 474.74 376.58 477.82 368.13 480.89 359.66 484.28 351.21 487.95 342.79 491.54 334.33 495.38 325.88 499.43 317.46 503.36 309 507.49 300.56 511.8 292.16 515.95 283.73 520.26 275.37 524.73 267.09 529.04 258.84 533.5 250.73 538.12 242.8 542.57 234.98 547.2 227.42 551.99 220.18 556.64 213.16 561.49 206.55 566.52 200.44 571.43 194.64 576.56 189.42 581.9 184.85 587.16 180.65 592.64 177.15 598.36 174.37 604.02 171.96 609.93 170.26 616.08 169.24 622.19 168.48 628.56 168.3 635.17 168.66 641.76 169.04 648.61 169.79 655.71 170.8 662.79 171.57 670.13 172.43 677.72 173.3 685.31 173.68 693.15 173.94 701.26 174.05" stroke-dasharray="9 5" transform="rotate(56.111111111111114, 711, 400)" opacity="0.29"></path><path d="M709.14 193.08C716.77 192.64 724.49 192.11 732.27 191.5 740.07 190.49 747.94 189.52 755.88 188.68 763.84 187.62 771.86 186.85 779.94 186.4 788.04 185.99 796.19 186.04 804.37 186.62 812.56 187.41 820.77 188.81 828.95 190.83 837.13 193.16 845.25 196.13 853.28 199.72 861.26 203.64 869.1 208.15 876.73 213.2 884.25 218.54 891.5 224.35 898.4 230.58 905.1 237.02 911.38 243.8 917.17 250.85 922.65 258.04 927.56 265.44 931.82 273.01 935.7 280.64 938.86 288.39 941.26 296.22 943.23 304.07 944.41 311.97 944.78 319.91 944.73 327.83 943.9 335.79 942.3 343.74 940.4 351.68 937.81 359.63 934.6 367.56 931.27 375.49 927.46 383.41 923.26 391.3 919.19 399.19 914.9 407.06 910.5 414.87 906.48 422.69 902.59 430.26 898.91 437.57 895.78 444.87 892.92 451.89 890.33 458.61 888.35 465.29 886.63 471.65 885.15 477.66 883.83 486.41 882.4 501.87 881.96 508.54 881.09 519.95 877.02 533.93 874.19 537.93 870.74 542.25 861.15 551.75 855.03 557.32 850.66 561.67 845.83 566.36 840.57 571.38 835.2 576.98 829.42 582.9 823.29 589.1 817.08 595.72 810.53 602.47 803.69 609.2 796.8 616.04 789.65 622.61 782.27 628.72 774.86 634.5 767.25 639.51 759.45 643.57 751.65 646.89 743.68 649.01 735.56 649.82 727.45 649.66 719.38 648.16 711.39 645.41 703.4 641.85 695.48 637.26 687.64 631.81 679.8 625.92 672.03 619.48 664.36 612.66 656.67 605.84 649.07 598.92 641.57 592.05 634.05 585.52 626.62 579.21 619.3 573.19 611.97 567.7 604.74 562.54 597.64 557.7 590.53 553.43 583.55 549.42 576.73 545.63 569.92 542.29 563.28 539.06 556.83 535.87 550.42 532.97 544.23 529.98 538.29 526.84 532.41 523.85 526.81 520.6 521.52 517.06 516.34 513.56 511.49 509.7 507.02 505.47 502.69 501.21 498.76 496.55 495.26 491.5 491.93 486.4 489.06 480.9 486.67 475.04 484.45 469.12 482.74 462.85 481.54 456.24 480.52 449.61 480.01 442.66 480.04 435.41 480.22 428.16 480.92 420.62 482.14 412.83 483.49 405.03 485.29 397.17 487.5 389.27 489.78 381.37 492.43 373.42 495.42 365.46 498.41 357.5 501.69 349.52 505.25 341.54 508.74 333.56 512.47 325.58 516.41 317.62 520.24 309.67 524.27 301.76 528.47 293.92 532.53 286.11 536.75 278.4 541.12 270.83 545.34 263.34 549.72 256.04 554.23 248.98 558.6 242.07 563.12 235.47 567.78 229.24 572.32 223.23 577.02 217.66 581.89 212.59 586.64 207.81 591.58 203.58 596.7 199.95 604.34 195.3 620.56 189.52 629.15 188.31 634.91 187.86 640.89 187.88 647.11 188.33 653.29 188.75 659.71 189.46 666.37 190.37 673.01 191.03 679.89 191.76 687.02 192.5 694.14 192.8 701.52 193 709.14 193.08" stroke-dasharray="7 6" transform="rotate(59.85185185185185, 711, 400)" opacity="0.39"></path><path d="M717.21 212.11C724.34 211.72 731.54 211.25 738.8 210.74 746.06 209.86 753.39 209.03 760.75 208.29 768.13 207.35 775.55 206.62 782.99 206.15 790.44 205.66 797.9 205.55 805.34 205.86 812.77 206.29 820.18 207.23 827.51 208.68 834.81 210.36 842.01 212.59 849.07 215.36 856.05 218.39 862.84 221.96 869.39 226.03 875.81 230.35 881.93 235.13 887.7 240.32 893.27 245.72 898.42 251.48 903.1 257.55 907.51 263.77 911.4 270.25 914.69 276.93 917.67 283.71 920.03 290.66 921.72 297.72 923.08 304.84 923.77 312.05 923.78 319.31 923.48 326.6 922.53 333.93 920.94 341.26 919.14 348.61 916.78 355.95 913.89 363.27 910.95 370.59 907.6 377.89 903.9 385.12 900.33 392.36 896.56 399.53 892.65 406.62 889.06 413.71 885.53 420.53 882.14 427.07 879.19 433.6 876.41 439.85 873.83 445.79 870.77 454.52 866.21 470.33 864.55 477.38 862.54 490.01 859.4 506.27 857.76 511 855.87 515.86 850.23 525.76 846.39 531.09 843.62 535.06 840.44 539.22 836.85 543.59 833.17 548.41 829.08 553.48 824.61 558.78 820.06 564.5 815.13 570.41 809.86 576.44 804.53 582.75 798.87 589.04 792.91 595.22 786.91 601.39 780.63 607.23 774.1 612.6 767.55 617.64 760.76 621.97 753.77 625.44 746.76 628.29 739.56 630.1 732.18 630.79 724.8 630.68 717.42 629.43 710.07 627.11 702.72 624.1 695.39 620.18 688.12 615.47 680.85 610.36 673.62 604.68 666.45 598.59 659.29 592.42 652.18 586.05 645.16 579.59 638.13 573.34 631.18 567.15 624.33 561.12 617.48 555.45 610.74 550 604.11 544.78 597.49 539.98 591.01 535.41 584.68 531.04 578.38 527.05 572.25 523.2 566.31 519.44 560.42 515.97 554.75 512.51 549.32 508.99 543.98 505.67 538.89 502.22 534.11 498.59 527.26 493.19 515.46 481.17 510.62 474.44 506.43 467.39 500.46 451.66 498.75 442.99 497.94 437.09 497.59 430.88 497.72 424.38 498.01 417.87 498.76 411.08 499.99 404.02 501.33 396.96 503.1 389.8 505.25 382.57 507.45 375.35 510 368.07 512.87 360.76 515.75 353.45 518.9 346.12 522.31 338.79 525.68 331.48 529.27 324.18 533.06 316.93 536.78 309.72 540.67 302.57 544.73 295.52 548.69 288.55 552.79 281.71 557.04 275.05 561.17 268.5 565.43 262.18 569.83 256.14 574.1 250.26 578.51 244.71 583.06 239.54 587.48 234.59 592.06 230.06 596.77 226 603.77 220.54 618.44 212.59 626.14 210.12 633.92 208.46 650.36 207.59 659.05 208.14 664.87 208.54 670.91 209.17 677.16 209.96 683.39 210.5 689.84 211.09 696.52 211.7 703.19 211.91 710.08 212.05 717.21 212.11" stroke-dasharray="5 5" transform="rotate(63.592592592592595, 711, 400)" opacity="0.64"></path><path d="M724.65 231.14C731.25 230.79 737.89 230.4 744.56 229.98 751.23 229.24 757.94 228.55 764.65 227.93 771.37 227.11 778.09 226.46 784.8 226.03 791.5 225.52 798.17 225.32 804.79 225.45 811.39 225.64 817.91 226.23 824.31 227.23 830.68 228.39 836.9 230 842.94 232.07 848.91 234.33 854.65 237.05 860.13 240.21 865.49 243.58 870.54 247.37 875.24 251.54 879.76 255.9 883.89 260.62 887.58 265.64 891.06 270.82 894.05 276.27 896.53 281.95 898.77 287.73 900.47 293.72 901.6 299.85 902.49 306.06 902.82 312.38 902.58 318.8 902.13 325.25 901.14 331.77 899.63 338.32 897.98 344.9 895.86 351.49 893.32 358.06 890.75 364.65 887.84 371.21 884.63 377.72 881.53 384.23 878.24 390.68 874.8 397.04 871.62 403.4 868.45 409.51 865.36 415.37 861.28 424.02 854.28 439.99 851.36 447.3 849.08 454.34 845.32 467.17 843.67 473.02 840.78 484.15 835.33 500.24 832.78 505.7 829.95 511.61 822.65 524.39 818.13 531.39 814.97 536.44 811.46 541.64 807.61 546.98 803.71 552.59 799.49 558.27 794.95 563.97 790.36 569.81 785.48 575.54 780.3 581.08 775.1 586.54 769.62 591.65 763.89 596.29 758.14 600.61 752.15 604.3 745.94 607.24 739.72 609.64 733.28 611.18 726.66 611.76 720.03 611.7 713.37 610.67 706.71 608.73 700.05 606.23 693.39 602.93 686.75 598.93 680.12 594.56 673.51 589.65 666.94 584.32 660.38 578.85 653.86 573.12 647.4 567.22 640.96 561.4 634.58 555.54 628.3 549.72 622.02 544.12 615.85 538.63 609.79 533.27 603.75 528.22 597.85 523.32 592.09 518.56 586.38 514.11 580.83 509.78 575.47 505.55 570.17 501.58 565.07 497.65 560.21 493.74 553.18 488.14 540.61 476.75 535.18 470.81 530.27 464.79 522.46 451.74 519.63 444.64 517.43 437.3 515.33 421.32 515.47 412.69 515.83 406.84 516.62 400.75 517.84 394.41 519.16 388.07 520.87 381.64 522.92 375.16 525.03 368.69 527.46 362.16 530.18 355.62 532.91 349.09 535.91 342.55 539.14 336.03 542.35 329.55 545.77 323.1 549.38 316.73 552.94 310.41 556.67 304.19 560.56 298.11 564.37 292.1 568.33 286.27 572.42 280.64 576.41 275.13 580.54 269.87 584.79 264.89 588.95 260.07 593.22 255.57 597.62 251.44 604.14 245.71 617.68 236.62 624.72 233.31 631.8 230.72 646.59 227.87 654.34 227.5 662.19 227.49 678.7 228.64 687.39 229.54 693.22 229.95 699.24 230.41 705.45 230.89 711.66 231.02 718.06 231.11 724.65 231.14" stroke-dasharray="7 6" transform="rotate(67.33333333333333, 711, 400)" opacity="0.78"></path><path d="M730.72 250.18C742.76 249.23 754.85 248.32 766.84 247.57 778.84 246.05 790.69 245.24 802.19 245.34 813.6 245.45 824.52 246.92 834.69 249.82 844.55 253.22 853.43 258.18 861.05 264.53 868.1 271.46 873.66 279.66 877.48 288.85 880.58 298.45 881.87 308.83 881.27 319.7 880.1 330.78 877.25 342.18 872.88 353.66 868.5 365.21 863.1 376.74 856.95 388.05 851.61 399.36 846.26 409.88 841.14 419.57 837.19 429.27 833.47 438.2 829.96 446.38 827.45 454.72 824.84 462.52 821.97 469.9 819.68 477.76 816.76 485.53 813.09 493.37 809.58 502.05 805.06 511.09 799.49 520.47 793.86 530.72 787.09 541.19 779.24 551.53 771.28 562.04 762.26 571.67 752.27 579.78 742.23 586.75 731.29 591.25 719.56 592.73 707.83 592.16 695.92 588.48 684.01 582.17 672.14 574.56 660.31 565.21 648.69 554.78 637.15 544.32 625.85 533.56 614.99 522.91 604.26 513.02 594.04 503.43 584.52 494.21 575.25 485.8 566.79 477.51 559.34 469.23 552.27 461.44 546.32 453.31 541.68 444.73 537.52 436.34 534.74 427.27 533.47 417.49 532.68 407.73 533.4 397.19 535.69 385.91 538.32 374.64 542.28 363.18 547.34 351.76 552.47 340.4 558.54 329.17 565.36 318.32 572.03 307.67 579.35 297.59 587.19 288.33 594.76 279.48 602.84 271.66 611.33 265.14 619.54 259.16 628.22 254.58 637.32 251.5 646.19 248.85 655.59 247.54 665.47 247.48 675.21 247.31 685.53 247.92 696.41 249.11 707.23 249.42 718.68 249.81 730.72 250.18" stroke-dasharray="7 11" transform="rotate(71.07407407407408, 711, 400)" opacity="0.89"></path><path d="M734.79 269.21C745.59 268.41 756.3 267.71 766.8 267.2 777.27 265.99 787.47 265.36 797.22 265.43 806.87 265.37 815.94 266.37 824.24 268.49 832.27 270.88 839.35 274.53 845.28 279.35 850.78 284.57 854.97 290.91 857.71 298.19 859.94 305.79 860.69 314.18 859.92 323.14 858.79 332.28 856.31 341.84 852.59 351.64 848.92 361.49 844.36 371.48 839.1 381.44 834.46 391.41 829.67 400.86 824.93 409.76 821.06 418.68 817.26 427.14 813.53 435.14 810.59 443.32 807.53 451.23 804.27 458.95 801.51 467.06 798.29 475.22 794.51 483.45 790.94 492.28 786.62 501.33 781.49 510.5 776.38 520.16 770.38 529.77 763.49 538.98 756.55 548.11 748.71 556.31 740.05 563.05 731.34 568.82 721.83 572.51 711.59 573.7 701.36 573.3 690.94 570.34 680.5 565.19 670.09 558.94 659.71 551.08 649.52 542.12 639.41 532.93 629.53 523.21 620.06 513.32 610.74 503.83 601.89 494.4 593.7 485.16 585.74 476.48 578.53 467.89 572.23 459.39 566.27 451.29 561.3 443.05 557.49 434.62 554.08 426.36 551.87 417.73 550.99 408.68 550.5 399.68 551.33 390.18 553.53 380.24 556.04 370.29 559.71 360.38 564.36 350.65 569.09 340.98 574.69 331.6 580.98 322.69 587.19 313.95 594.02 305.84 601.34 298.55 608.47 291.56 616.08 285.54 624.07 280.64 631.86 276.1 640.07 272.71 648.63 270.53 657.03 268.54 665.85 267.59 675.05 267.61 684.15 267.39 693.71 267.78 703.67 268.64 713.6 268.73 723.99 268.94 734.79 269.21" stroke-dasharray="9 2" transform="rotate(74.81481481481481, 711, 400)" opacity="0.95"></path><path d="M736.46 288.24C745.95 287.58 755.23 287.08 764.19 286.79 773.13 285.91 781.7 285.5 789.76 285.64 797.72 285.57 805.09 286.31 811.69 287.91 820.86 290.94 833.92 302.15 837.41 310.18 839.01 316.02 839.42 322.61 838.62 329.81 837.62 337.13 835.55 344.96 832.46 353.14 829.45 361.36 825.68 369.87 821.26 378.55 817.29 387.24 813.08 395.68 808.79 403.84 805.13 412.03 801.4 420.01 797.64 427.77 794.47 435.68 791.15 443.51 787.65 451.26 784.56 459.31 781.12 467.42 777.27 475.55 773.64 484.06 769.44 492.62 764.65 501.11 759.93 509.81 754.52 518.27 748.43 526.18 742.33 533.87 735.52 540.64 728.04 546.11 720.53 550.78 712.35 553.73 703.57 554.67 694.79 554.41 685.85 552.1 676.9 547.98 667.99 542.99 659.11 536.58 650.42 529.12 641.8 521.34 633.4 512.91 625.39 504.13 617.52 495.48 610.09 486.7 603.25 477.94 596.62 469.5 590.65 461.08 585.48 452.74 580.59 444.68 576.57 436.58 573.55 428.44 570.84 420.45 569.17 412.29 568.63 403.98 568.4 395.71 569.3 387.2 571.38 378.52 573.71 369.83 577.05 361.38 581.24 353.27 585.53 345.19 590.59 337.52 596.27 330.39 601.93 323.38 608.16 317 614.83 311.4 621.41 305.98 628.42 301.4 635.78 297.77 643.01 294.31 650.6 291.77 658.5 290.18 666.28 288.6 674.41 287.82 682.82 287.77 691.16 287.44 699.84 287.58 708.79 288.12 717.73 288.01 726.98 288.06 736.46 288.24" stroke-dasharray="9 3" transform="rotate(78.55555555555556, 711, 400)" opacity="0.39"></path><path d="M735.57 307.27C743.68 306.74 751.51 306.42 758.96 306.33 766.39 305.76 773.4 305.59 779.89 305.86 789.22 306.22 804.41 310.12 809.92 313.9 814.27 318.55 818.05 331.66 817.44 339.89 816.63 345.64 814.96 351.92 812.48 358.64 810.09 365.37 807.04 372.5 803.4 379.96 800.09 387.42 796.48 394.85 792.69 402.21 789.34 409.59 785.84 416.94 782.22 424.23 779.02 431.62 775.65 439.03 772.1 446.41 768.86 453.96 765.34 461.55 761.52 469.09 757.88 476.81 753.84 484.47 749.37 491.9 744.98 499.38 740.09 506.48 734.71 513 729.34 519.25 723.44 524.66 717.03 528.95 710.62 532.62 703.69 534.92 696.29 535.64 688.9 535.5 681.42 533.74 673.96 530.55 666.52 526.69 659.15 521.64 651.96 515.66 644.84 509.34 637.94 502.35 631.39 494.92 624.96 487.46 618.92 479.73 613.41 471.9 608.06 464.19 603.29 456.42 599.21 448.69 595.34 441.1 592.21 433.51 589.91 425.95 587.86 418.49 586.66 410.99 586.41 403.51 586.39 396.06 587.31 388.56 589.23 381.1 591.34 373.63 594.3 366.53 598 359.86 601.78 353.22 606.24 347.04 611.24 341.42 616.25 335.85 621.78 330.89 627.71 326.61 633.59 322.41 639.87 318.91 646.46 316.17 652.97 313.47 659.8 311.48 666.87 310.2 673.89 308.85 681.17 308.09 688.65 307.88 696.09 307.39 703.77 307.29 711.61 307.52 719.44 307.25 727.45 307.16 735.57 307.27" stroke-dasharray="6 3" transform="rotate(82.29629629629629, 711, 400)" opacity="0.52"></path><path d="M732.19 326.3C738.9 325.89 745.29 325.72 751.29 325.8 760.06 325.54 775.21 326.52 781.38 328 790.49 333.16 796.95 346.51 796.45 352.93 795.22 359.9 789.66 376.18 785.56 385.37 782.86 391.63 779.86 398 776.64 404.4 773.69 410.83 770.54 417.32 767.23 423.82 764.19 430.38 760.96 436.98 757.56 443.56 754.38 450.2 750.97 456.84 747.32 463.36 743.82 469.94 740.02 476.35 735.93 482.49 731.91 488.56 727.55 494.23 722.85 499.33 718.17 504.2 713.12 508.34 707.72 511.57 702.33 514.35 696.57 516.08 690.5 516.61 684.43 516.55 678.34 515.27 672.32 512.89 666.31 510.04 660.4 506.23 654.68 501.64 649.01 496.77 643.55 491.27 638.41 485.31 633.36 479.26 628.66 472.87 624.4 466.29 620.27 459.73 616.61 453.03 613.53 446.31 610.6 439.64 608.27 432.94 606.62 426.29 605.14 419.69 604.35 413.11 604.33 406.62 604.46 400.15 605.37 393.74 607.08 387.46 608.93 381.18 611.48 375.32 614.63 369.92 617.86 364.52 621.65 359.59 625.91 355.17 630.2 350.77 634.93 346.89 640.01 343.57 645.08 340.26 650.49 337.51 656.16 335.33 661.81 333.13 667.72 331.45 673.82 330.31 679.89 329.04 686.17 328.22 692.58 327.82 698.98 327.18 705.53 326.85 712.15 326.84 718.77 326.44 725.48 326.25 732.19 326.3" stroke-dasharray="2 6" transform="rotate(86.03703703703704, 711, 400)" opacity="0.53"></path><path d="M726.68 345.33C737.28 344.43 746.62 344.64 754.33 345.9 764.84 347.54 775.76 358.39 775.72 368 774.96 374.94 772.28 383.58 767.71 393.71 763.67 403.84 758.47 414.56 752.6 425.35 747.37 436.21 741.32 447.19 734.66 457.61 728.38 467.95 721.17 477.42 713.18 485.1 705.28 492.03 696.4 496.48 686.78 497.58 677.15 497.21 667.73 493.41 659.02 487 650.42 479.74 642.7 470.55 636.41 460.36 630.41 450.02 626.02 439.04 623.71 428.14 621.82 417.28 622.11 406.49 624.93 396.33 628.12 386.16 633.45 377.52 640.33 370.58 647.33 363.6 655.75 358.26 665.02 354.66 674.3 350.82 684.41 348.44 694.84 347.48 705.28 345.78 716.08 345.03 726.68 345.33" stroke-dasharray="9 1" transform="rotate(89.77777777777777, 711, 400)" opacity="0.30"></path><path d="M719.58 364.36C730.8 363.99 747.26 367.35 752 371.41 755.17 376.37 754.02 392.33 749.86 403.3 746.89 411 742.9 419.15 738.26 427.3 733.96 435.45 728.93 443.56 723.43 451.08 718.14 458.46 712.22 465.05 705.85 470.23 699.55 474.92 692.69 477.87 685.5 478.55 678.3 478.41 671.45 475.95 665.28 471.67 659.16 466.87 653.81 460.58 649.56 453.4 645.46 446.04 642.57 438.04 641.21 429.93 640.06 421.81 640.5 413.66 642.77 405.93 645.27 398.21 649.33 391.61 654.52 386.25 659.82 380.83 666.2 376.56 673.21 373.5 680.26 370.22 687.93 367.96 695.8 366.76 703.69 365.09 711.76 364.25 719.58 364.36" stroke-dasharray="10 1" transform="rotate(93.51851851851852, 711, 400)" opacity="0.70"></path><path d="M711.62 383.39C721.85 382.45 729.21 384.79 732.78 389.69 736.31 394.12 736.24 401.85 732.01 412.23 728.28 422.62 721.49 433.78 713.45 443.16 705.78 452.13 696.41 458.47 686.79 459.51 677.16 459.17 669.05 453.42 663.93 444.82 659.04 435.77 657.5 424.76 660.62 414.35 664.16 403.93 671.7 396.01 680.97 391.24 690.39 385.97 701.39 383.08 711.62 383.39" stroke-dasharray="11 6" transform="rotate(97.25925925925925, 711, 400)" opacity="0.89"></path></g></svg>